<svg width="26" height="26" viewBox="0 0 26 26" fill="none" xmlns="http://www.w3.org/2000/svg">
<mask id="mask0_5006_10331" style="mask-type:luminance" maskUnits="userSpaceOnUse" x="0" y="0" width="26" height="26">
<path d="M0.96875 0.162109H25.9479V25.1465H0.96875V0.162109Z" fill="white"/>
</mask>
<g mask="url(#mask0_5006_10331)">
<path d="M25.9219 15.698C25.9219 18.7344 25.9219 21.7709 25.9219 24.8126C25.9219 25.3594 25.7708 25.5105 25.2292 25.5105H15.9063V22.8594C17.2865 23.2657 18.3385 22.8803 19.0469 21.7188C19.3073 21.2761 19.4219 20.8021 19.3802 20.2865C19.3333 19.7761 19.151 19.323 18.8177 18.9271C18.0677 18.0261 17.0833 17.7553 15.901 18.1355V15.4896C15.9271 15.4844 15.9583 15.4844 15.9844 15.4844H16.5365C17.4583 15.4844 18.3802 15.4844 19.3021 15.4896H19.3125C19.5573 15.5261 19.7396 15.4376 19.849 15.2136C19.9427 14.9844 19.8958 14.7813 19.7083 14.6146C19.4375 14.3073 19.3073 13.9532 19.3177 13.5417C19.3281 13.1303 19.474 12.7761 19.7604 12.4844C20.0469 12.1928 20.3958 12.0313 20.8073 12.0105C21.2135 11.9844 21.5781 12.1042 21.8958 12.3646C22.0625 12.5001 22.1927 12.6615 22.2969 12.849C22.3958 13.0365 22.4531 13.2396 22.4688 13.4532C22.4844 13.6667 22.4635 13.8751 22.3958 14.073C22.3281 14.2761 22.2187 14.4584 22.0781 14.6198C21.875 14.7813 21.8281 14.9792 21.9375 15.2136C22.0625 15.4428 22.25 15.5313 22.5052 15.4844C23.3646 15.4792 24.2188 15.4792 25.0885 15.4792H25.9115V15.5001C25.9167 15.5678 25.9219 15.6355 25.9219 15.698ZM17.4688 21.9376C17.6823 21.849 17.8646 21.7136 18.0156 21.5417C18.1667 21.3698 18.2813 21.1771 18.3438 20.9532C18.4115 20.7344 18.4323 20.5105 18.401 20.2813C18.3698 20.0521 18.2917 19.8438 18.1667 19.6511C18.0469 19.4532 17.8854 19.2969 17.6927 19.1719C17.5 19.0469 17.2865 18.9688 17.0625 18.9376C16.8333 18.9011 16.6094 18.9219 16.3906 18.9844C16.1667 19.0521 15.9688 19.1615 15.7969 19.3126C15.7135 19.3855 15.4531 19.6094 15.1927 19.4323C15.0313 19.3126 14.9479 19.1563 14.9323 18.9584C14.9219 18.1511 14.9271 17.3282 14.9323 16.5313L14.9375 15.6407C14.9323 15.5938 14.9323 15.5469 14.9219 15.5053H12.2917C12.5937 16.9584 12.2969 17.8959 11.3385 18.5365C10.9063 18.8282 10.4271 18.974 9.90625 18.9688C9.38542 18.9636 8.91146 18.8126 8.48958 18.5105C7.55208 17.8646 7.25521 16.9063 7.56771 15.5105H4.93229V24.8073C4.93229 25.3803 5.0625 25.5105 5.63542 25.5105H14.9323C14.9375 25.4844 14.9427 25.4636 14.9427 25.4376V24.8334C14.9427 23.9271 14.9427 23.0261 14.9375 22.1198C14.8906 21.8698 14.9792 21.6771 15.1979 21.5469C15.4427 21.4323 15.651 21.4792 15.8177 21.6876C16.0417 21.8959 16.3021 22.0209 16.6042 22.0678C16.9063 22.1146 17.1927 22.073 17.4688 21.9376ZM5.04167 10.3646C5.05729 10.2448 5.05208 10.1303 5.03125 10.0105C5.01562 9.91672 5.01042 9.81776 5.01042 9.72401V9.69276C5.01042 9.52089 5.01042 9.30735 5.13021 9.20839C5.26042 9.13026 5.40104 9.10422 5.55208 9.12506C5.58854 9.12506 5.63021 9.12506 5.66146 9.12506C5.72396 9.13026 5.77604 9.14589 5.82813 9.17714C5.84375 9.18756 5.85938 9.19276 5.88021 9.20318L8.08333 10.0782L8.75521 8.37506C7.70313 8.2136 7.0625 7.64589 6.85938 6.68235C6.76563 6.29693 6.78646 5.92193 6.92708 5.54693C7.06771 5.17714 7.29687 4.87506 7.61979 4.64589C8.44792 4.0261 9.32813 4.03131 10.2344 4.66672L10.9063 2.96881C10.875 2.95318 10.8542 2.94276 10.8281 2.93235L9.88021 2.55735C7.97917 1.80214 6.07813 1.04693 4.18229 0.291723C3.88021 0.171931 3.77083 0.224014 3.64583 0.536514C2.83854 2.56776 2.03125 4.59381 1.22917 6.62506L1.07813 7.00006C1.04687 7.07297 1.02083 7.14589 0.994792 7.21881L0.984375 7.25526L3.18229 8.13026C3.21354 8.14068 3.23958 8.1511 3.27083 8.16151C3.46354 8.23443 3.70312 8.32297 3.73958 8.61985C3.78125 8.91672 3.57292 9.04693 3.40104 9.14589C3.36979 9.16672 3.33333 9.18756 3.30208 9.20839C3.09375 9.35422 2.94271 9.54693 2.86458 9.79172C2.78646 10.0365 2.78646 10.2813 2.86979 10.5209C2.95833 10.7657 3.10937 10.9584 3.32292 11.0938C3.53646 11.2344 3.77604 11.2969 4.03125 11.2761C4.28646 11.2605 4.50521 11.1667 4.69792 11.0001C4.88542 10.8282 5 10.6146 5.04167 10.3646ZM25.2448 4.52089C22.1979 4.52089 19.151 4.52089 16.1042 4.52089C16.0417 4.52089 15.9792 4.5261 15.9115 4.53131H15.8906V5.34901C15.8906 6.22401 15.8854 7.05735 15.8958 7.90631C15.9323 8.14589 15.849 8.32818 15.6458 8.45839C15.4115 8.58339 15.2135 8.54693 15.0365 8.35422C14.8906 8.2136 14.7187 8.10943 14.5313 8.04172C14.3385 7.96881 14.1406 7.93756 13.9427 7.94276C13.7396 7.94797 13.5417 7.99485 13.3594 8.07297C13.1719 8.15631 13.0104 8.27089 12.8698 8.41672C12.7292 8.56256 12.6198 8.72922 12.5417 8.91151C12.4635 9.09901 12.4219 9.29693 12.4167 9.50006C12.4115 9.69797 12.4479 9.89589 12.5208 10.0834C12.5885 10.2761 12.6927 10.4428 12.8281 10.5938C12.9687 10.7448 13.125 10.8646 13.3073 10.9532C13.4896 11.0417 13.6823 11.0938 13.8854 11.1042C14.0885 11.1198 14.2865 11.0938 14.474 11.0313C14.6667 10.9688 14.8437 10.8698 14.9948 10.7396C15.1615 10.5157 15.3698 10.4688 15.6198 10.5886C15.8646 10.7084 15.9531 10.9063 15.8802 11.1719C15.8802 11.9792 15.8802 12.7917 15.8802 13.599V14.5209H18.5417C18.1563 13.3386 18.4271 12.3594 19.3333 11.6042C19.7344 11.2709 20.1927 11.0834 20.7083 11.0417C21.2292 11.0053 21.7083 11.1198 22.151 11.3907C23.2969 12.099 23.6719 13.1511 23.2656 14.5209H25.9219V12.0417C25.9219 9.76568 25.9219 7.48964 25.9219 5.20839C25.9219 4.67193 25.776 4.52089 25.2448 4.52089Z" fill="#FF8C42"/>
</g>
</svg>
