<svg width="25" height="38" viewBox="0 0 25 38" fill="none" xmlns="http://www.w3.org/2000/svg">
<mask id="mask0_5006_10330" style="mask-type:luminance" maskUnits="userSpaceOnUse" x="0" y="18" width="12" height="20">
<path d="M0 18.666H12V37.3327H0V18.666Z" fill="white"/>
</mask>
<g mask="url(#mask0_5006_10330)">
<mask id="mask1_5006_10330" style="mask-type:luminance" maskUnits="userSpaceOnUse" x="-1" y="0" width="26" height="38">
<path d="M-0.00537109 10.4323V27.2396C-0.00537109 32.7552 4.46859 37.2292 9.98421 37.2292H14.8123C20.328 37.2292 24.8019 32.7552 24.8019 27.2396V10.4323C24.8019 4.91146 20.328 0.4375 14.8123 0.4375H9.98421C4.46859 0.4375 -0.00537109 4.91146 -0.00537109 10.4323Z" fill="white"/>
</mask>
<g mask="url(#mask1_5006_10330)">
<path d="M10.2813 21.5827C10.1927 21.5827 10.0625 21.6035 9.9375 21.7025L9.19271 22.2702C8.95833 22.4525 8.67708 22.5462 8.38542 22.5462C7.71875 22.5462 7.15104 22.0462 7.0625 21.3848L6.9375 20.4577C6.90104 20.1764 6.66146 19.9629 6.38021 19.9629C6.32813 19.9629 6.28125 19.9733 6.22917 19.9837L5.63021 20.1452L0 32.64L4.64583 29.4941L7.16146 37.2233L10.9271 22.1296L10.776 21.8691C10.6719 21.6868 10.4896 21.5827 10.2813 21.5827Z" fill="#FF8C42"/>
</g>
</g>
<mask id="mask2_5006_10330" style="mask-type:luminance" maskUnits="userSpaceOnUse" x="0" y="0" width="24" height="23">
<path d="M0 0.4375H24V22.6667H0V0.4375Z" fill="white"/>
</mask>
<g mask="url(#mask2_5006_10330)">
<mask id="mask3_5006_10330" style="mask-type:luminance" maskUnits="userSpaceOnUse" x="-1" y="0" width="26" height="38">
<path d="M-0.00537109 10.4323V27.2396C-0.00537109 32.7552 4.46859 37.2292 9.98421 37.2292H14.8123C20.328 37.2292 24.8019 32.7552 24.8019 27.2396V10.4323C24.8019 4.91146 20.328 0.4375 14.8123 0.4375H9.98421C4.46859 0.4375 -0.00537109 4.91146 -0.00537109 10.4323Z" fill="white"/>
</mask>
<g mask="url(#mask3_5006_10330)">
<path d="M13.1719 20.1042C12.9167 20.125 12.6563 20.1354 12.3958 20.1354C12.1354 20.1354 11.8802 20.125 11.625 20.1042C9.70833 19.9323 7.97917 19.1354 6.63021 17.9219C4.88021 16.3438 3.78125 14.0625 3.78125 11.5208C3.78125 6.76563 7.64063 2.90625 12.3958 2.90625C17.1563 2.90625 21.0104 6.76563 21.0104 11.5208C21.0104 14.0625 19.9115 16.3438 18.1615 17.9219C16.8177 19.1354 15.0833 19.9323 13.1719 20.1042ZM15.3073 21.1146L16.0469 21.6823C16.1615 21.7708 16.2865 21.8073 16.4063 21.8073C16.6927 21.8073 16.9583 21.6042 17 21.2917L17.125 20.3646C17.2135 19.6979 17.7813 19.2292 18.4167 19.2292C18.526 19.2292 18.6406 19.2396 18.7552 19.2708L18.776 19.276L19.6615 19.5156C19.7135 19.526 19.7656 19.5365 19.8177 19.5365C20.1927 19.5365 20.4948 19.1719 20.3906 18.7865L20.1458 17.8802C19.9427 17.1198 20.4531 16.349 21.2396 16.25L22.1667 16.125C22.6198 16.0677 22.8385 15.5365 22.5625 15.1719L21.9896 14.4323C21.5104 13.8073 21.6927 12.901 22.375 12.5052L23.1823 12.0365C23.5781 11.8073 23.5781 11.2344 23.1823 11.0052L22.375 10.5417C21.6927 10.1458 21.5104 9.23958 21.9896 8.61458L22.5625 7.86979C22.8385 7.50521 22.6198 6.97917 22.1667 6.91667L21.2396 6.79688C20.4531 6.69271 19.9427 5.92708 20.1458 5.16146L20.3906 4.26042C20.4948 3.86979 20.1927 3.51042 19.8177 3.51042C19.7656 3.51042 19.7135 3.51562 19.6615 3.53125L18.7552 3.77083C18.6406 3.80208 18.526 3.81771 18.4167 3.81771C17.7813 3.81771 17.2135 3.34896 17.125 2.68229L17 1.75521C16.9583 1.4375 16.6927 1.23438 16.4115 1.23438C16.2865 1.23438 16.1615 1.27604 16.0469 1.35938L15.3073 1.93229C15.0677 2.11458 14.7865 2.19792 14.5156 2.19792C14.0625 2.19792 13.625 1.96875 13.3802 1.54688L12.9115 0.734375C12.7969 0.536459 12.599 0.4375 12.3958 0.4375C12.1979 0.4375 11.9948 0.536459 11.8802 0.734375L11.4115 1.54688C11.1719 1.96875 10.7292 2.19792 10.2813 2.19792C10.0052 2.19792 9.72917 2.11458 9.48958 1.93229L8.74479 1.35938C8.63542 1.27604 8.51042 1.23438 8.38542 1.23438C8.10417 1.23438 7.83333 1.4375 7.79167 1.75521L7.67188 2.68229C7.58333 3.34896 7.01563 3.81771 6.38021 3.81771C6.26563 3.81771 6.15104 3.80208 6.03646 3.77083L5.13542 3.53125C5.08333 3.51562 5.03125 3.51042 4.97917 3.51042C4.60417 3.51042 4.30208 3.86979 4.40625 4.26042L4.64583 5.16146C4.85417 5.92708 4.33854 6.69271 3.55729 6.79688L2.63021 6.91667C2.17708 6.97917 1.95833 7.50521 2.23438 7.86979L2.80208 8.61458C3.28646 9.23958 3.10417 10.1458 2.42188 10.5417L1.60938 11.0052C1.21354 11.2344 1.21354 11.8073 1.60938 12.0365L2.42188 12.5052C3.10417 12.901 3.28646 13.8073 2.80208 14.4323L2.23438 15.1719C1.95833 15.5365 2.17708 16.0677 2.63021 16.125L3.55729 16.25C4.33854 16.349 4.85417 17.1198 4.64583 17.8802L4.40625 18.7865C4.30208 19.1719 4.60417 19.5365 4.97917 19.5365C5.03125 19.5365 5.08333 19.526 5.13542 19.5156L6.02083 19.276L6.03646 19.2708C6.15104 19.2396 6.26563 19.2292 6.38021 19.2292C7.01563 19.2292 7.58333 19.6979 7.67188 20.3646L7.79167 21.2917C7.83333 21.6042 8.10417 21.8073 8.38542 21.8073C8.51042 21.8073 8.63542 21.7708 8.74479 21.6823L9.48958 21.1146C9.72917 20.9323 10.0052 20.8438 10.2813 20.8438C10.6302 20.8438 10.9792 20.9844 11.2292 21.25C11.2969 21.3229 11.3594 21.4063 11.4115 21.5L11.8802 22.3073C11.9948 22.5052 12.1979 22.6042 12.3958 22.6042C12.599 22.6042 12.7969 22.5052 12.9115 22.3073L13.3802 21.5C13.4323 21.4063 13.4948 21.3229 13.5677 21.25C13.8177 20.9844 14.1615 20.8438 14.5156 20.8438C14.7865 20.8438 15.0677 20.9323 15.3073 21.1146Z" fill="#FF8C42"/>
</g>
</g>
<mask id="mask4_5006_10330" style="mask-type:luminance" maskUnits="userSpaceOnUse" x="4" y="2" width="18" height="18">
<path d="M4 2.66602H21.3333V19.9993H4V2.66602Z" fill="white"/>
</mask>
<g mask="url(#mask4_5006_10330)">
<mask id="mask5_5006_10330" style="mask-type:luminance" maskUnits="userSpaceOnUse" x="-1" y="0" width="26" height="38">
<path d="M-0.00537109 10.4323V27.2396C-0.00537109 32.7552 4.46859 37.2292 9.98421 37.2292H14.8123C20.328 37.2292 24.8019 32.7552 24.8019 27.2396V10.4323C24.8019 4.91146 20.328 0.4375 14.8123 0.4375H9.98421C4.46859 0.4375 -0.00537109 4.91146 -0.00537109 10.4323Z" fill="white"/>
</mask>
<g mask="url(#mask5_5006_10330)">
<path d="M12.3955 18.6309C8.47884 18.6309 5.28613 15.4434 5.28613 11.5215C5.28613 7.60482 8.47884 4.41211 12.3955 4.41211C16.3174 4.41211 19.5049 7.60482 19.5049 11.5215C19.5049 15.4434 16.3174 18.6309 12.3955 18.6309ZM12.3955 3.67773C8.07259 3.67773 4.55176 7.19857 4.55176 11.5215C4.55176 15.8496 8.07259 19.3704 12.3955 19.3704C16.7236 19.3704 20.2445 15.8496 20.2445 11.5215C20.2445 7.19857 16.7236 3.67773 12.3955 3.67773Z" fill="#FF8C42"/>
</g>
</g>
<mask id="mask6_5006_10330" style="mask-type:luminance" maskUnits="userSpaceOnUse" x="6" y="5" width="12" height="11">
<path d="M6.6665 5.33398H17.3332V16.0007H6.6665V5.33398Z" fill="white"/>
</mask>
<g mask="url(#mask6_5006_10330)">
<mask id="mask7_5006_10330" style="mask-type:luminance" maskUnits="userSpaceOnUse" x="-1" y="0" width="26" height="38">
<path d="M-0.00537109 10.4323V27.2396C-0.00537109 32.7552 4.46859 37.2292 9.98421 37.2292H14.8123C20.328 37.2292 24.8019 32.7552 24.8019 27.2396V10.4323C24.8019 4.91146 20.328 0.4375 14.8123 0.4375H9.98421C4.46859 0.4375 -0.00537109 4.91146 -0.00537109 10.4323Z" fill="white"/>
</mask>
<g mask="url(#mask7_5006_10330)">
<path d="M15.0624 12.3906C15.0051 12.4427 14.9791 12.526 14.9947 12.6042L15.4947 15.5365C15.5312 15.7344 15.3229 15.8854 15.1406 15.7917L12.5104 14.4062C12.4374 14.3698 12.3541 14.3698 12.2812 14.4062L9.65098 15.7917C9.4739 15.8854 9.26557 15.7344 9.29682 15.5365L9.80202 12.6042C9.81244 12.526 9.7864 12.4427 9.73432 12.3906L7.60411 10.3125C7.45827 10.1719 7.5364 9.92708 7.73432 9.89583L10.6822 9.47396C10.7604 9.45833 10.8281 9.41146 10.8645 9.33854L12.1822 6.67187C12.2708 6.48958 12.526 6.48958 12.6145 6.67187L13.9322 9.33854C13.9687 9.41146 14.0364 9.45833 14.1145 9.47396L17.0572 9.89583C17.2551 9.92708 17.3385 10.1719 17.1927 10.3125L15.0624 12.3906Z" fill="#FF8C42"/>
</g>
</g>
<mask id="mask8_5006_10330" style="mask-type:luminance" maskUnits="userSpaceOnUse" x="13" y="18" width="12" height="20">
<path d="M13.3335 18.666H24.9741V37.3327H13.3335V18.666Z" fill="white"/>
</mask>
<g mask="url(#mask8_5006_10330)">
<mask id="mask9_5006_10330" style="mask-type:luminance" maskUnits="userSpaceOnUse" x="-1" y="0" width="26" height="38">
<path d="M-0.00488281 10.4323V27.2396C-0.00488281 32.7552 4.46908 37.2292 9.9847 37.2292H14.8128C20.3285 37.2292 24.8024 32.7552 24.8024 27.2396V10.4323C24.8024 4.91146 20.3285 0.4375 14.8128 0.4375H9.9847C4.46908 0.4375 -0.00488281 4.91146 -0.00488281 10.4323Z" fill="white"/>
</mask>
<g mask="url(#mask9_5006_10330)">
<path d="M19.167 20.1452L18.5628 19.9837C18.516 19.9733 18.4639 19.9629 18.417 19.9629C18.1357 19.9629 17.891 20.1764 17.8545 20.4577L17.7347 21.3848C17.6462 22.0462 17.0785 22.5462 16.4066 22.5462C16.1149 22.5462 15.8337 22.4525 15.5993 22.2702L14.8597 21.7025C14.7295 21.6035 14.5993 21.5827 14.516 21.5827C14.3076 21.5827 14.1253 21.6868 14.0212 21.8691L13.8701 22.1296L17.6357 37.2233L20.1462 29.4941L24.7972 32.64L19.167 20.1452Z" fill="#FF8C42"/>
</g>
</g>
</svg>
