<svg width="32" height="33" viewBox="0 0 32 33" fill="none" xmlns="http://www.w3.org/2000/svg">
<mask id="mask0_5006_10329" style="mask-type:luminance" maskUnits="userSpaceOnUse" x="6" y="21" width="20" height="12">
<path d="M6.6665 21.334H25.3332V32.7559H6.6665V21.334Z" fill="white"/>
</mask>
<g mask="url(#mask0_5006_10329)">
<path d="M20.047 22.2132C19.823 22.1507 19.5834 22.281 19.5053 22.4997L17.1876 29.1351L16.6563 24.7966H17.0105C17.2241 24.7966 17.3959 24.6247 17.3959 24.406V23.2132C17.3959 22.9997 17.2188 22.8278 17.0105 22.8278H15.0626C14.8543 22.8278 14.6772 22.9997 14.6772 23.2132V24.406C14.6772 24.6247 14.8491 24.7966 15.0626 24.7966H15.4168L14.8855 29.1351L12.5678 22.4997C12.4897 22.2757 12.2501 22.1455 12.0261 22.2132C9.7501 22.9268 8.01051 24.8955 7.71885 27.3747L7.41676 30.932C7.32822 31.9632 8.14072 32.8539 9.17718 32.8539L22.9011 32.8643C23.9376 32.8643 24.7553 31.9789 24.6668 30.9476L24.3647 27.3747C24.0626 24.8955 22.3282 22.9268 20.047 22.2132Z" fill="#FF8C42"/>
</g>
<path d="M17.8543 12.4688C18.4325 12.7083 18.9429 13.0469 19.3856 13.4896C19.8283 13.9323 20.1668 14.4427 20.4064 15.0156C20.646 15.5937 20.7658 16.1979 20.7658 16.8177C20.7658 17.4427 20.646 18.0469 20.4064 18.6198C20.1668 19.1979 19.8283 19.7083 19.3856 20.151C18.9429 20.5885 18.4325 20.9323 17.8543 21.1719C17.2814 21.4063 16.6772 21.526 16.0575 21.526C15.4325 21.526 14.8283 21.4063 14.2554 21.1719C13.6772 20.9323 13.1668 20.5885 12.7241 20.151C12.2866 19.7083 11.9429 19.1979 11.7033 18.6198C11.4689 18.0469 11.3491 17.4427 11.3491 16.8177C11.3491 16.1979 11.4689 15.5937 11.7033 15.0156C11.9429 14.4427 12.2866 13.9323 12.7241 13.4896C13.1668 13.0469 13.6772 12.7083 14.2554 12.4688C14.8283 12.2292 15.4325 12.1094 16.0575 12.1094C16.6772 12.1094 17.2814 12.2292 17.8543 12.4688Z" fill="#FF8C42"/>
<mask id="mask1_5006_10329" style="mask-type:luminance" maskUnits="userSpaceOnUse" x="10" y="0" width="12" height="11">
<path d="M10.6665 0.78125H21.3332V10.6667H10.6665V0.78125Z" fill="white"/>
</mask>
<g mask="url(#mask1_5006_10329)">
<path d="M13.2444 6.44727C13.3538 6.54622 13.4059 6.69727 13.3746 6.83789L12.9319 8.98372C12.8174 9.55143 13.4215 9.99414 13.9267 9.70768L15.833 8.62956C15.958 8.55664 16.1194 8.55664 16.2496 8.62956L18.1507 9.70768C18.6559 9.99414 19.2653 9.55143 19.1455 8.98372L18.708 6.83789C18.6767 6.69727 18.7288 6.54622 18.833 6.44206L20.4528 4.96289C20.8799 4.57227 20.6455 3.85872 20.0726 3.79102L17.8955 3.55143C17.7496 3.53581 17.6194 3.44206 17.5621 3.30664L16.6507 1.30664C16.4111 0.780599 15.6611 0.780599 15.4215 1.30664L14.5153 3.30143C14.458 3.43685 14.3278 3.5306 14.1819 3.54622L12.0049 3.79102C11.4267 3.85352 11.1924 4.56706 11.6246 4.95768L13.2444 6.44727Z" fill="#FF8C42"/>
</g>
<mask id="mask2_5006_10329" style="mask-type:luminance" maskUnits="userSpaceOnUse" x="0" y="4" width="11" height="11">
<path d="M0.661621 4H10.6668V14.6667H0.661621V4Z" fill="white"/>
</mask>
<g mask="url(#mask2_5006_10329)">
<path d="M8.62009 12.9583L8.17738 10.8125C8.14613 10.6667 8.19821 10.5156 8.30759 10.4167L9.92217 8.9375C10.3545 8.54688 10.1201 7.82813 9.54196 7.76563L7.36488 7.52083C7.21904 7.50521 7.09404 7.41667 7.03154 7.27604L6.12529 5.28125C5.88571 4.75 5.13571 4.75 4.89613 5.28125L3.98988 7.27604C3.93259 7.40625 3.80238 7.50521 3.65654 7.52083L1.47946 7.77083C0.901336 7.83333 0.666961 8.54688 1.09925 8.9375L2.71904 10.4167C2.82842 10.5208 2.8753 10.6667 2.84404 10.8125L2.40134 12.9583C2.28675 13.526 2.89613 13.9687 3.40134 13.6823L5.30238 12.599C5.43259 12.526 5.58884 12.526 5.71904 12.599L7.62529 13.6823C8.12529 13.9687 8.73467 13.526 8.62009 12.9583Z" fill="#FF8C42"/>
</g>
<mask id="mask3_5006_10329" style="mask-type:luminance" maskUnits="userSpaceOnUse" x="21" y="4" width="11" height="11">
<path d="M21.3335 4H31.6408V14.6667H21.3335V4Z" fill="white"/>
</mask>
<g mask="url(#mask3_5006_10329)">
<path d="M30.9846 8.9375C31.4169 8.54688 31.1826 7.83333 30.6044 7.77083L28.4273 7.52604C28.2815 7.51042 28.1565 7.41667 28.094 7.28125L27.1878 5.28125C26.9482 4.75521 26.193 4.75521 25.9534 5.28125L25.0523 7.27604C24.9899 7.41146 24.8596 7.50521 24.7138 7.52083L22.5367 7.76563C21.9586 7.82813 21.7294 8.54688 22.1565 8.9375L23.7763 10.4167C23.8857 10.5156 23.9326 10.6615 23.9013 10.8073L23.4638 12.9583C23.3492 13.526 23.9586 13.9687 24.4638 13.6823L26.3648 12.599C26.4951 12.526 26.6513 12.526 26.7815 12.599L28.6878 13.6823C29.1878 13.9687 29.7971 13.526 29.6826 12.9583L29.2398 10.8125C29.2086 10.6667 29.2607 10.5156 29.3701 10.4167L30.9846 8.9375Z" fill="#FF8C42"/>
</g>
</svg>
