<?xml version="1.0" encoding="UTF-8"?>
<svg version="1.1" xmlns="http://www.w3.org/2000/svg" width="128" height="128">
<path d="M0 0 C15.552114 11.63763633 25.5090226 25.60965663 28.82421875 44.96484375 C31.23461474 64.10856731 26.04523982 80.53865381 14.609375 95.96875 C2.50637426 110.30615087 -14.2261193 117.2005696 -32.5703125 119 C-49.46853241 119.60171703 -65.89986385 113.6173813 -78.328125 102.21875 C-89.97812375 90.98939785 -98.36200956 76.53894633 -99.13671875 60.0703125 C-99.16021208 58.16160247 -99.16110233 56.25249477 -99.140625 54.34375 C-99.13232666 53.33715332 -99.12402832 52.33055664 -99.11547852 51.29345703 C-98.93983465 43.54137429 -97.92254225 36.83787803 -94.703125 29.71875 C-93.9915625 28.11193359 -93.9915625 28.11193359 -93.265625 26.47265625 C-85.40175739 10.42356106 -72.17904106 -1.49117111 -55.265625 -7.34375 C-37.10494887 -12.85347244 -15.90835232 -10.46321159 0 0 Z " fill="#FCA15A" transform="translate(98.703125,9.28125)"/>
<path d="M0 0 C15.72208733 11.76482725 25.38263622 25.68212027 28.83984375 45.171875 C29.4314964 49.76350411 29.5101758 54.09723274 29.296875 58.71875 C25.006875 58.71875 20.716875 58.71875 16.296875 58.71875 C16.09191406 57.75453125 15.88695313 56.7903125 15.67578125 55.796875 C15.40636719 54.53359375 15.13695313 53.2703125 14.859375 51.96875 C14.59253906 50.71578125 14.32570313 49.4628125 14.05078125 48.171875 C13.5052515 45.67317915 12.94048688 43.19321899 12.296875 40.71875 C8.95434776 40.64447162 6.4932836 40.65328047 3.296875 41.71875 C2.33462322 44.07625797 2.33462322 44.07625797 1.734375 46.90625 C0.75210359 50.96297541 -0.37302089 54.72843767 -1.703125 58.71875 C-11.603125 59.21375 -11.603125 59.21375 -21.703125 59.71875 C-22.363125 62.02875 -23.023125 64.33875 -23.703125 66.71875 C-24.363125 66.38875 -25.023125 66.05875 -25.703125 65.71875 C-26.14842931 62.84591872 -26.46237106 60.04857657 -26.703125 57.15625 C-26.78506104 56.26873047 -26.86699707 55.38121094 -26.95141602 54.46679688 C-27.39655985 49.56553795 -27.78879979 44.66065715 -28.16796875 39.75390625 C-28.92916133 29.97099573 -29.77147632 20.24234525 -31.203125 10.53125 C-31.38089478 9.30245117 -31.38089478 9.30245117 -31.56225586 8.04882812 C-32.39661122 2.13933742 -32.39661122 2.13933742 -34.703125 -3.28125 C-37.23983582 -3.93603452 -37.23983582 -3.93603452 -39.703125 -4.28125 C-42.37586661 7.97128887 -44.23957137 20.23101837 -45.5546875 32.69921875 C-45.62832268 33.39576694 -45.70195786 34.09231514 -45.7778244 34.80997086 C-46.30662521 39.84084838 -46.81894144 44.87335484 -47.328125 49.90625 C-47.84456812 55.00746889 -48.36683507 60.10795843 -48.90385056 65.20705605 C-49.11372575 67.22837838 -49.31302596 69.25056234 -49.51187134 71.272995 C-49.70249649 73.0930883 -49.70249649 73.0930883 -49.89697266 74.94995117 C-50.00482086 76.01912277 -50.11266907 77.08829437 -50.2237854 78.18986511 C-50.703125 80.71875 -50.703125 80.71875 -52.703125 82.71875 C-52.74800049 81.98462891 -52.79287598 81.25050781 -52.83911133 80.49414062 C-53.70472481 66.72193906 -54.60786629 53.19344294 -57.703125 39.71875 C-59.353125 39.38875 -61.003125 39.05875 -62.703125 38.71875 C-64.99905235 42.16264102 -65.55289157 45.29522231 -66.265625 49.28125 C-67.58759751 56.48769502 -67.58759751 56.48769502 -68.703125 58.71875 C-78.273125 58.71875 -87.843125 58.71875 -97.703125 58.71875 C-97.703125 60.69875 -97.703125 62.67875 -97.703125 64.71875 C-98.033125 64.71875 -98.363125 64.71875 -98.703125 64.71875 C-99.54873138 40.56367856 -99.54873138 40.56367856 -94.703125 29.71875 C-94.22875 28.64625 -93.754375 27.57375 -93.265625 26.46875 C-85.39396818 10.42268033 -72.18123968 -1.49041032 -55.265625 -7.34375 C-37.10494887 -12.85347244 -15.90835232 -10.46321159 0 0 Z " fill="#FDA159" transform="translate(98.703125,9.28125)"/>
<path d="M0 0 C2.375 -0.125 2.375 -0.125 5 0 C12.94079258 7.94079258 11.38637629 30.08397343 12.24560547 40.81835938 C13.02748689 50.56013738 13.9892544 60.27963804 15 70 C15.99 67.69 16.98 65.38 18 63 C24.6 63 31.2 63 38 63 C38.268125 61.494375 38.53625 59.98875 38.8125 58.4375 C41.05669716 47.29553523 41.05669716 47.29553523 46 44 C49 43.9375 49 43.9375 52 45 C55.5417103 50.6178853 55.5970358 56.47197989 56 63 C60.29 63 64.58 63 69 63 C68.67 64.98 68.34 66.96 68 69 C65.72975032 69.08097324 63.45867925 69.13917704 61.1875 69.1875 C59.29064453 69.23970703 59.29064453 69.23970703 57.35546875 69.29296875 C54 69 54 69 52.15625 67.9375 C50.42152023 65.03065552 49.95031591 62.12306831 49.3125 58.8125 C49.06113281 57.54019531 48.80976562 56.26789062 48.55078125 54.95703125 C48.36902344 53.98121094 48.18726562 53.00539062 48 52 C47.67386719 52.97582031 47.34773438 53.95164063 47.01171875 54.95703125 C46.57077166 56.24234511 46.12933992 57.52749278 45.6875 58.8125 C45.47416016 59.45509766 45.26082031 60.09769531 45.04101562 60.75976562 C43.84572584 64.20291382 42.90578663 66.75187409 40 69 C37.9152832 69.34057617 37.9152832 69.34057617 35.55078125 69.29296875 C34.70322266 69.28330078 33.85566406 69.27363281 32.98242188 69.26367188 C32.10134766 69.23853516 31.22027344 69.21339844 30.3125 69.1875 C29.41982422 69.17396484 28.52714844 69.16042969 27.60742188 69.14648438 C25.40433834 69.11114079 23.20247418 69.06180493 21 69 C21.01047363 69.61520508 21.02094727 70.23041016 21.03173828 70.86425781 C21.07338695 73.65946343 21.09935416 76.45460366 21.125 79.25 C21.14175781 80.21808594 21.15851563 81.18617187 21.17578125 82.18359375 C21.18222656 83.11816406 21.18867187 84.05273438 21.1953125 85.015625 C21.20578613 85.87446289 21.21625977 86.73330078 21.22705078 87.61816406 C20.97811341 90.22959744 20.44806729 91.81838442 19 94 C16.375 94.75 16.375 94.75 14 95 C10.79193232 90.55326174 10.17368635 86.48658711 9.5 81.1875 C9.37890869 80.29168213 9.25781738 79.39586426 9.13305664 78.47290039 C7.50896564 65.93926829 6.46598648 53.33556471 5.34082031 40.74951172 C4.62069169 32.82706521 3.8043712 24.91423042 3 17 C0.20533946 33.32820061 -1.6132635 49.72566668 -3.375 66.19262695 C-7.37093297 103.37093297 -7.37093297 103.37093297 -10 106 C-11.66617115 106.04063832 -13.33388095 106.042721 -15 106 C-18.16132374 96.57271103 -18.89735513 87.21267599 -19.625 77.375 C-19.80484336 75.03367027 -19.98769653 72.69265379 -20.17562866 70.35195923 C-20.29102079 68.90670533 -20.40140462 67.46104095 -20.5062561 66.01498413 C-20.50724324 62.72076759 -20.50724324 62.72076759 -22 60 C-22.19335938 60.56589844 -22.38671875 61.13179687 -22.5859375 61.71484375 C-22.84632812 62.44832031 -23.10671875 63.18179688 -23.375 63.9375 C-23.63023438 64.66839844 -23.88546875 65.39929688 -24.1484375 66.15234375 C-25 68 -25 68 -27 69 C-29.32416296 69.08586809 -31.65083307 69.10711043 -33.9765625 69.09765625 C-34.66181 69.0962413 -35.3470575 69.09482635 -36.05307007 69.09336853 C-38.24375761 69.08776675 -40.4343433 69.07521406 -42.625 69.0625 C-44.10937352 69.05748522 -45.59374865 69.05292228 -47.078125 69.04882812 C-50.71878315 69.03779677 -54.35938164 69.02053099 -58 69 C-58 67.02 -58 65.04 -58 63 C-48.43 63 -38.86 63 -29 63 C-28.13520633 57.58741187 -28.13520633 57.58741187 -27.2956543 52.17089844 C-26.6054013 48.06343097 -25.98649251 45.11197539 -23 42 C-21.35 42.33 -19.7 42.66 -18 43 C-14.55820145 51.47434432 -14.02064604 60.04736739 -13.3125 69.0625 C-13.18265388 70.6114134 -13.05180268 72.16024289 -12.91992188 73.70898438 C-12.60168318 77.47178878 -12.29707421 81.23546799 -12 85 C-11.9189653 84.23595352 -11.8379306 83.47190704 -11.75444031 82.68470764 C-10.98127711 75.40487251 -10.20237522 68.12568313 -9.41737652 60.84711552 C-9.01421215 57.10713515 -8.61309872 53.36696087 -8.21704102 49.6262207 C-3.62346474 6.28073683 -3.62346474 6.28073683 0 0 Z " fill="#1A8181" transform="translate(59,5)"/>
<path d="M0 0 C0.33 0 0.66 0 1 0 C1.33 3.63 1.66 7.26 2 11 C1.01 10.34 0.02 9.68 -1 9 C-0.67 6.03 -0.34 3.06 0 0 Z " fill="#D19459" transform="translate(37,60)"/>
</svg>
