<svg width="315" height="64" viewBox="0 0 315 64" fill="none" xmlns="http://www.w3.org/2000/svg">
<mask id="mask0_5004_7221" style="mask-type:luminance" maskUnits="userSpaceOnUse" x="0" y="0" width="64" height="64">
<path d="M0.168945 0.0400391H63.7899V63.6775H0.168945V0.0400391Z" fill="white"/>
</mask>
<g mask="url(#mask0_5004_7221)">
<mask id="mask1_5004_7221" style="mask-type:luminance" maskUnits="userSpaceOnUse" x="0" y="0" width="64" height="64">
<path d="M31.9794 0.0400391C14.4123 0.0400391 0.168945 14.2852 0.168945 31.8631C0.168945 49.4324 14.4123 63.6775 31.9794 63.6775C49.5465 63.6775 63.7899 49.4324 63.7899 31.8631C63.7899 14.2852 49.5465 0.0400391 31.9794 0.0400391Z" fill="white"/>
</mask>
<g mask="url(#mask1_5004_7221)">
<path d="M0.168945 0.0400391V63.6775H63.7899V0.0400391H0.168945Z" fill="url(#paint0_linear_5004_7221)"/>
</g>
</g>
<mask id="mask2_5004_7221" style="mask-type:luminance" maskUnits="userSpaceOnUse" x="0" y="2" width="78" height="54">
<path d="M0.864746 2.38086H77.4413V55.7761H0.864746V2.38086Z" fill="white"/>
</mask>
<g mask="url(#mask2_5004_7221)">
<path d="M23.4609 55.7065C21.5293 55.7065 21.2335 54.4273 20.0328 40.5738C19.7369 37.2235 19.3541 32.8029 18.9451 29.6876C18.8929 29.9574 18.8494 30.2097 18.8059 30.4447C18.1534 34.0821 17.64 36.9625 15.4387 36.9625H0.908203V34.0299H14.9688C15.3256 33.2467 15.691 31.2018 15.9259 29.9226C16.5872 26.2416 17.0658 23.5788 19.1975 23.5788C21.2596 23.5788 21.6424 25.3018 22.9476 40.3127C23.1129 42.2097 23.3043 44.3591 23.5044 46.3693C24.0352 42.2184 24.6181 36.8928 25.1402 32.1851C28.3247 3.38158 28.8816 2.38086 30.9698 2.38086C33.1189 2.38086 33.6236 4.05164 35.8423 26.9987C36.2425 31.0712 36.6776 35.6224 37.1126 39.4164C37.2605 36.1706 37.713 34.0299 39.7403 34.0299H48.1888C48.5804 33.4382 49.0937 31.6804 49.407 30.5926C50.3119 27.4599 51.1645 24.5012 53.5225 24.5012C56.0196 24.5012 56.5069 27.6601 56.968 30.7057C57.1334 31.7326 57.3857 33.3773 57.6728 34.0299H77.0932V36.9625H57.2813C54.9668 36.9625 54.5318 34.1343 54.0706 31.1495C53.9227 30.1836 53.7052 28.7217 53.4268 27.8776C52.9917 28.7478 52.5132 30.4099 52.2261 31.4019C51.3647 34.3867 50.6164 36.9625 48.5108 36.9625H40.3232C40.0535 37.9893 40.0013 40.5651 39.9752 42.1749C39.8882 46.639 39.8273 49.8675 37.4084 49.8675C35.3724 49.8675 34.9896 48.6057 32.9275 27.2772C32.3445 21.2989 31.6223 13.8239 30.9437 9.15969C30.0127 14.7899 28.9164 24.684 28.055 32.5071C25.4969 55.7065 25.3055 55.7065 23.4609 55.7065Z" fill="#128083"/>
</g>
<path d="M78.5649 55.8835H72.0566V13.8008H78.5649V31.8312H98.1245V13.8008H104.633V55.8835H98.1245V37.679H78.5649V55.8835Z" fill="#128083"/>
<path d="M126.404 56.4745C123.385 56.4745 120.731 55.7957 118.434 54.4208C116.137 53.0546 114.336 51.175 113.04 48.7819C111.761 46.3976 111.125 43.6913 111.125 40.6717C111.125 38.6093 111.447 36.6253 112.1 34.7196C112.744 32.7964 113.701 31.0821 114.954 29.568C116.224 28.0364 117.79 26.8182 119.652 25.9132C121.532 25.0082 123.724 24.5557 126.23 24.5557C128.849 24.5557 131.312 25.13 133.609 26.2612C135.923 27.4012 137.802 29.1155 139.247 31.4128C140.682 33.7101 141.405 36.6166 141.405 40.1148V41.7507H117.321C117.408 42.9864 117.703 44.1003 118.191 45.0923C118.93 46.9545 120.035 48.4339 121.497 49.5477C122.959 50.6442 124.629 51.1837 126.509 51.1837C128.571 51.1837 130.276 50.6529 131.625 49.5825C132.991 48.5209 133.965 47.2504 134.548 45.7885H140.883C140.273 47.7377 139.334 49.5303 138.063 51.1489C136.784 52.75 135.183 54.0379 133.261 55.0125C131.329 55.9872 129.049 56.4745 126.404 56.4745ZM117.703 36.8776H135.105C135.079 36.4425 134.983 35.9639 134.827 35.4505C134.688 34.9197 134.461 34.4237 134.165 33.9538C133.443 32.518 132.373 31.4302 130.964 30.6818C129.571 29.9422 128.057 29.568 126.439 29.568C122.889 29.568 120.322 31.0299 118.747 33.9538C118.443 34.4237 118.208 34.9197 118.051 35.4505C117.886 35.99 117.773 36.4599 117.703 36.8776Z" fill="#128083"/>
<path d="M156.155 56.4745C153.179 56.4745 150.769 55.6913 148.916 54.1075C147.054 52.5325 146.131 50.3483 146.131 47.5637C146.131 46.0843 146.418 44.7964 147.001 43.7C147.602 42.5861 148.411 41.6463 149.438 40.8805C150.36 40.2366 151.421 39.6884 152.605 39.2446C153.806 38.8095 155.119 38.4614 156.538 38.2003L166.596 36.2511C166.544 34.1191 165.978 32.4832 164.89 31.3432C163.655 30.1423 162.037 29.5332 160.018 29.5332C158.365 29.5332 156.929 30.0031 155.702 30.9255C154.467 31.8305 153.692 33.101 153.37 34.7196H147.349C147.715 32.4483 148.533 30.5687 149.786 29.0807C151.039 27.5752 152.57 26.4527 154.38 25.7043C156.19 24.9386 158.086 24.5557 160.088 24.5557C161.845 24.5557 163.533 24.8254 165.134 25.3562C166.735 25.8697 168.101 26.6615 169.241 27.7232C170.372 28.75 171.173 29.9335 171.642 31.2736C172.104 32.6224 172.373 33.9538 172.443 35.2765C172.53 36.5992 172.582 37.8001 172.582 38.8617V55.8827H166.526V51.3577C166.082 52.1061 165.595 52.75 165.064 53.307C164.525 53.8465 163.951 54.3164 163.324 54.7341C162.35 55.3606 161.253 55.8044 160.053 56.0568C158.869 56.3352 157.564 56.4745 156.155 56.4745ZM157.373 51.4621C158.991 51.4621 160.47 51.1402 161.793 50.4875C163.69 49.539 164.969 48.2772 165.621 46.6935C166.291 45.0923 166.631 43.1605 166.631 40.8805L157.999 42.5861C155.859 43.0299 154.319 43.6913 153.37 44.5702C152.579 45.3621 152.187 46.3019 152.187 47.3896C152.187 48.6949 152.657 49.7043 153.614 50.4179C154.589 51.1141 155.842 51.4621 157.373 51.4621Z" fill="#128083"/>
<path d="M190.333 55.8835H186.713C184.434 55.8835 182.659 55.3614 181.388 54.3171C180.109 53.2729 179.474 51.3846 179.474 48.6434V13.8008H185.565V47.1815C185.565 48.3911 185.747 49.2961 186.122 49.8965C186.513 50.4796 187.348 50.7667 188.627 50.7667H190.333V55.8835Z" fill="#128083"/>
<path d="M214.554 56.5441C211.074 56.5441 208.046 55.9523 205.471 54.7689C202.913 53.568 200.816 51.9494 199.171 49.9306C197.518 47.9117 196.3 45.6057 195.517 43.0038C194.725 40.3845 194.333 37.6695 194.333 34.8588C194.333 32.0567 194.725 29.3504 195.517 26.7485C196.326 24.1554 197.544 21.8319 199.171 19.787C200.816 17.7507 202.913 16.1321 205.471 14.9487C208.046 13.7478 211.048 13.1387 214.485 13.1387C219.566 13.1387 223.647 14.3482 226.736 16.7587C229.816 19.1778 231.869 22.3105 232.896 26.1568H225.692C224.874 23.9291 223.516 22.18 221.619 20.9008C219.74 19.6303 217.347 18.9864 214.45 18.9864C211.387 18.9864 208.855 19.7174 206.863 21.1793C204.862 22.6238 203.382 24.5382 202.408 26.9226C201.451 29.3156 200.981 31.9262 200.981 34.7543C200.981 37.7043 201.486 40.3932 202.512 42.8298C203.556 45.2489 205.096 47.1721 207.141 48.6079C209.203 50.0524 211.77 50.766 214.833 50.766C218.539 50.766 221.498 49.7391 223.708 47.6681C225.909 45.6057 227.031 42.7079 227.084 38.9661H217.373V33.4317H233.453V55.8827H227.571V50.4875C226.083 52.6456 224.143 54.2032 221.759 55.1518C219.392 56.0742 216.991 56.5441 214.554 56.5441Z" fill="#FF8C42"/>
<path d="M250.881 56.4749C246.4 56.4749 243.294 54.8041 241.553 51.4625C241.084 50.514 240.753 49.4089 240.544 48.1558C240.335 46.8853 240.231 45.2493 240.231 43.2479V25.1826H246.322V43.3175C246.322 46.4328 246.852 48.5996 247.923 49.8266C248.871 50.8534 250.298 51.3581 252.203 51.3581C254.405 51.3581 256.11 50.662 257.32 49.2697C258.172 48.3908 258.781 47.1986 259.129 45.6844C259.477 44.179 259.651 42.134 259.651 39.5583V25.1826H265.707V55.8831H259.651V51.5322C258.329 53.2551 256.98 54.5082 255.614 55.2914C254.265 56.0746 252.691 56.4749 250.881 56.4749Z" fill="#FF8C42"/>
<path d="M276.034 20.866C274.92 20.866 273.954 20.5092 273.145 19.787C272.327 19.0473 271.927 18.1162 271.927 17.0023C271.927 15.9146 272.327 15.0009 273.145 14.2525C273.954 13.5129 274.92 13.1387 276.034 13.1387C277.165 13.1387 278.13 13.5129 278.922 14.2525C279.705 15.0009 280.106 15.9146 280.106 17.0023C280.106 18.1162 279.705 19.0473 278.922 19.787C278.13 20.5092 277.165 20.866 276.034 20.866ZM279.061 55.8827H273.006V25.1822H279.061V55.8827Z" fill="#FF8C42"/>
<path d="M298.806 56.4752C296.066 56.4752 293.673 55.8052 291.637 54.4564C289.592 53.0901 288.017 51.2105 286.903 48.8175C285.79 46.4331 285.233 43.6833 285.233 40.568C285.233 37.3918 285.79 34.6159 286.903 32.2489C288.017 29.8646 289.592 27.985 291.637 26.6101C293.673 25.2439 296.066 24.5564 298.806 24.5564C300.729 24.5564 302.426 24.9045 303.888 25.6006C305.349 26.2794 306.776 27.5673 308.168 29.4643V13.8008H314.224V55.8835H308.168V51.5325C306.794 53.4121 305.367 54.7174 303.888 55.431C302.426 56.1271 300.729 56.4752 298.806 56.4752ZM299.885 51.1844C301.625 51.1844 303.157 50.7493 304.479 49.8617C305.802 48.9567 306.829 47.6949 307.577 46.0677C308.342 44.4491 308.725 42.613 308.725 40.568C308.725 38.4621 308.342 36.5999 307.577 34.9988C306.829 33.3802 305.802 32.1097 304.479 31.2047C303.157 30.2997 301.625 29.8472 299.885 29.8472C298.119 29.8472 296.588 30.3171 295.291 31.2395C294.012 32.1706 293.029 33.4498 292.333 35.0684C291.637 36.6695 291.289 38.5057 291.289 40.568C291.289 42.5869 291.637 44.4143 292.333 46.0329C293.029 47.634 294.012 48.9045 295.291 49.8269C296.588 50.7319 298.119 51.1844 299.885 51.1844Z" fill="#FF8C42"/>
<defs>
<linearGradient id="paint0_linear_5004_7221" x1="0.165483" y1="31.8616" x2="63.7931" y2="31.8616" gradientUnits="userSpaceOnUse">
<stop stop-color="#FF8C42"/>
<stop offset="0.015625" stop-color="#FF8C42"/>
<stop offset="0.03125" stop-color="#FF8D43"/>
<stop offset="0.046875" stop-color="#FF8E44"/>
<stop offset="0.0625" stop-color="#FF8E45"/>
<stop offset="0.078125" stop-color="#FF8F45"/>
<stop offset="0.09375" stop-color="#FF9046"/>
<stop offset="0.109375" stop-color="#FF9047"/>
<stop offset="0.125" stop-color="#FF9148"/>
<stop offset="0.140625" stop-color="#FF9248"/>
<stop offset="0.15625" stop-color="#FF9349"/>
<stop offset="0.171875" stop-color="#FF934A"/>
<stop offset="0.1875" stop-color="#FF944A"/>
<stop offset="0.203125" stop-color="#FF954B"/>
<stop offset="0.21875" stop-color="#FF954C"/>
<stop offset="0.234375" stop-color="#FF964D"/>
<stop offset="0.25" stop-color="#FF974D"/>
<stop offset="0.265625" stop-color="#FF974E"/>
<stop offset="0.28125" stop-color="#FF984F"/>
<stop offset="0.296875" stop-color="#FF9950"/>
<stop offset="0.3125" stop-color="#FF9950"/>
<stop offset="0.328125" stop-color="#FF9A51"/>
<stop offset="0.34375" stop-color="#FF9B52"/>
<stop offset="0.359375" stop-color="#FF9B53"/>
<stop offset="0.375" stop-color="#FF9C53"/>
<stop offset="0.390625" stop-color="#FF9D54"/>
<stop offset="0.40625" stop-color="#FF9E55"/>
<stop offset="0.421875" stop-color="#FF9E55"/>
<stop offset="0.4375" stop-color="#FF9F56"/>
<stop offset="0.453125" stop-color="#FFA057"/>
<stop offset="0.46875" stop-color="#FFA058"/>
<stop offset="0.484375" stop-color="#FFA158"/>
<stop offset="0.5" stop-color="#FFA259"/>
<stop offset="0.515625" stop-color="#FFA25A"/>
<stop offset="0.53125" stop-color="#FFA35B"/>
<stop offset="0.546875" stop-color="#FFA45B"/>
<stop offset="0.5625" stop-color="#FFA45C"/>
<stop offset="0.578125" stop-color="#FFA55D"/>
<stop offset="0.59375" stop-color="#FFA65E"/>
<stop offset="0.609375" stop-color="#FFA75E"/>
<stop offset="0.625" stop-color="#FFA75F"/>
<stop offset="0.640625" stop-color="#FFA860"/>
<stop offset="0.65625" stop-color="#FFA960"/>
<stop offset="0.671875" stop-color="#FFA961"/>
<stop offset="0.6875" stop-color="#FFAA62"/>
<stop offset="0.703125" stop-color="#FFAB63"/>
<stop offset="0.71875" stop-color="#FFAB63"/>
<stop offset="0.734375" stop-color="#FFAC64"/>
<stop offset="0.75" stop-color="#FFAD65"/>
<stop offset="0.765625" stop-color="#FFAD66"/>
<stop offset="0.78125" stop-color="#FFAE66"/>
<stop offset="0.796875" stop-color="#FFAF67"/>
<stop offset="0.8125" stop-color="#FFAF68"/>
<stop offset="0.828125" stop-color="#FFB069"/>
<stop offset="0.84375" stop-color="#FFB169"/>
<stop offset="0.859375" stop-color="#FFB26A"/>
<stop offset="0.875" stop-color="#FFB26B"/>
<stop offset="0.890625" stop-color="#FFB36B"/>
<stop offset="0.90625" stop-color="#FFB46C"/>
<stop offset="0.921875" stop-color="#FFB46D"/>
<stop offset="0.9375" stop-color="#FFB56E"/>
<stop offset="0.953125" stop-color="#FFB66E"/>
<stop offset="0.96875" stop-color="#FFB66F"/>
<stop offset="0.984375" stop-color="#FFB770"/>
<stop offset="1" stop-color="#FFB871"/>
</linearGradient>
</defs>
</svg>
