<svg width="43" height="45" viewBox="0 0 43 45" fill="none" xmlns="http://www.w3.org/2000/svg">
<mask id="mask0_4912_8911" style="mask-type:luminance" maskUnits="userSpaceOnUse" x="0" y="0" width="43" height="45">
<path d="M0.328125 0.25H42.3073V44.2292H0.328125V0.25Z" fill="white"/>
</mask>
<g mask="url(#mask0_4912_8911)">
<path d="M34.8802 4.66162H32.8281V1.60433C32.8281 0.864747 32.2292 0.270996 31.5 0.270996C30.7656 0.270996 30.1719 0.869955 30.1719 1.60433V4.67204H11.8906V1.60433C11.8906 0.864747 11.2917 0.270996 10.5625 0.270996C9.82813 0.270996 9.23438 0.869955 9.23438 1.60433V4.67204H7.94271C3.73438 4.67204 0.328125 8.07829 0.328125 12.2814V36.7606C0.328125 40.9689 3.73438 44.3752 7.94271 44.3752H34.8802C39.0833 44.3752 42.4896 40.9689 42.4896 36.7606V12.2814C42.4948 8.07829 39.0833 4.66162 34.8802 4.66162ZM30.1667 6.07308V8.8335C30.1667 9.57308 30.7656 10.1668 31.4948 10.1668C32.2292 10.1668 32.8229 9.56787 32.8229 8.8335V6.17725C33.6771 6.67204 34.2552 7.59391 34.2552 8.646C34.2552 10.2241 32.974 11.5054 31.3958 11.5054C29.8177 11.5054 28.5365 10.2241 28.5365 8.646C28.5469 7.51058 29.2083 6.53141 30.1667 6.07308ZM9.22917 6.11995V8.8335C9.22917 9.57308 9.82813 10.1668 10.5573 10.1668C11.2917 10.1668 11.8854 9.56787 11.8854 8.8335V6.11995C12.7917 6.59912 13.4115 7.54704 13.4115 8.64079C13.4115 10.2189 12.1302 11.5002 10.5521 11.5002C8.97396 11.5002 7.69271 10.2189 7.69271 8.64079C7.70313 7.54704 8.32813 6.59912 9.22917 6.11995ZM39.8333 36.7554C39.8333 39.4897 37.6094 41.7033 34.8854 41.7033H7.94271C5.20833 41.7033 2.99479 39.4845 2.99479 36.7554V16.4793H39.8333V36.7554Z" fill="#EE8454"/>
</g>
<path d="M11.9323 24.1563H8.24479C7.94792 24.1563 7.70312 23.9167 7.70312 23.6198V19.9323C7.70312 19.6354 7.94792 19.3906 8.24479 19.3906H11.9323C12.2292 19.3906 12.4688 19.6354 12.4688 19.9323V23.6198C12.4635 23.9167 12.2292 24.1563 11.9323 24.1563Z" fill="#EE8454"/>
<path d="M11.9323 31.7188H8.24479C7.94792 31.7188 7.70312 31.474 7.70312 31.1771V27.4896C7.70312 27.1979 7.94792 26.9531 8.24479 26.9531H11.9323C12.2292 26.9531 12.4688 27.1979 12.4688 27.4896V31.1771C12.4635 31.4844 12.2292 31.7188 11.9323 31.7188Z" fill="#EE8454"/>
<path d="M11.9323 39.2866H8.24479C7.94792 39.2866 7.70312 39.0418 7.70312 38.745V35.0575C7.70312 34.7606 7.94792 34.521 8.24479 34.521H11.9323C12.2292 34.521 12.4688 34.7606 12.4688 35.0575V38.7502C12.4635 39.0418 12.2292 39.2866 11.9323 39.2866Z" fill="#EE8454"/>
<path d="M19.4948 24.1563H15.8073C15.5104 24.1563 15.2656 23.9167 15.2656 23.6198V19.9323C15.2656 19.6354 15.5104 19.3906 15.8073 19.3906H19.4948C19.7917 19.3906 20.0313 19.6354 20.0313 19.9323V23.6198C20.0313 23.9167 19.7917 24.1563 19.4948 24.1563Z" fill="#EE8454"/>
<path d="M19.4948 31.7188H15.8073C15.5104 31.7188 15.2656 31.474 15.2656 31.1771V27.4896C15.2656 27.1979 15.5104 26.9531 15.8073 26.9531H19.4948C19.7917 26.9531 20.0313 27.1979 20.0313 27.4896V31.1771C20.0313 31.4844 19.7917 31.7188 19.4948 31.7188Z" fill="#EE8454"/>
<path d="M19.4948 39.2866H15.8073C15.5104 39.2866 15.2656 39.0418 15.2656 38.745V35.0575C15.2656 34.7606 15.5104 34.521 15.8073 34.521H19.4948C19.7917 34.521 20.0313 34.7606 20.0313 35.0575V38.7502C20.0313 39.0418 19.7917 39.2866 19.4948 39.2866Z" fill="#EE8454"/>
<path d="M27.057 24.1563H23.3695C23.0778 24.1563 22.833 23.9167 22.833 23.6198V19.9323C22.833 19.6354 23.0778 19.3906 23.3695 19.3906H27.057C27.3538 19.3906 27.5986 19.6354 27.5986 19.9323V23.6198C27.5934 23.9167 27.3538 24.1563 27.057 24.1563Z" fill="#EE8454"/>
<path d="M27.057 31.7188H23.3695C23.0778 31.7188 22.833 31.474 22.833 31.1771V27.4896C22.833 27.1979 23.0778 26.9531 23.3695 26.9531H27.057C27.3538 26.9531 27.5986 27.1979 27.5986 27.4896V31.1771C27.5934 31.4844 27.3538 31.7188 27.057 31.7188Z" fill="#EE8454"/>
<path d="M27.057 39.2866H23.3695C23.0778 39.2866 22.833 39.0418 22.833 38.745V35.0575C22.833 34.7606 23.0778 34.521 23.3695 34.521H27.057C27.3538 34.521 27.5986 34.7606 27.5986 35.0575V38.7502C27.5934 39.0418 27.3538 39.2866 27.057 39.2866Z" fill="#EE8454"/>
<path d="M34.6253 24.1563H30.9378C30.641 24.1563 30.4014 23.9167 30.4014 23.6198V19.9323C30.4014 19.6354 30.641 19.3906 30.9378 19.3906H34.6253C34.9222 19.3906 35.167 19.6354 35.167 19.9323V23.6198C35.1618 23.9167 34.917 24.1563 34.6253 24.1563Z" fill="#EE8454"/>
<path d="M34.6253 31.7188H30.9378C30.641 31.7188 30.4014 31.474 30.4014 31.1771V27.4896C30.4014 27.1979 30.641 26.9531 30.9378 26.9531H34.6253C34.9222 26.9531 35.167 27.1979 35.167 27.4896V31.1771C35.1618 31.4844 34.917 31.7188 34.6253 31.7188Z" fill="#EE8454"/>
</svg>
