<svg width="51" height="46" viewBox="0 0 51 46" fill="none" xmlns="http://www.w3.org/2000/svg">
<mask id="mask0_4996_10427" style="mask-type:luminance" maskUnits="userSpaceOnUse" x="0" y="0" width="51" height="46">
<path d="M0.458984 0.942627H50.4017V45.8853H0.458984V0.942627Z" fill="white"/>
</mask>
<g mask="url(#mask0_4996_10427)">
<path fill-rule="evenodd" clip-rule="evenodd" d="M32.2201 39.3698C29.4701 39.0313 26.6263 41.0781 26.6263 44.3021C26.6263 45.1146 25.9648 45.7708 25.1523 45.7708H20.668C19.8555 45.7708 19.1992 45.1146 19.1992 44.3021C19.1992 39.8802 13.8503 37.6667 10.7253 40.7917C10.1523 41.3646 9.22005 41.3646 8.64714 40.7917L5.47526 37.6198C4.90234 37.0469 4.90234 36.1146 5.47526 35.5365C8.59505 32.4167 6.38151 27.0677 1.96484 27.0677C1.15234 27.0677 0.496094 26.4063 0.496094 25.5938V21.1146C0.496094 20.3021 1.15234 19.6406 1.96484 19.6406C6.38151 19.6406 8.59505 14.2917 5.47526 11.1719C4.90234 10.5937 4.90234 9.66146 5.47526 9.08854L8.64714 5.91667C9.22005 5.34375 10.1523 5.34375 10.7253 5.91667C13.8503 9.03646 19.1992 6.82292 19.1992 2.41146C19.1992 1.59375 19.8555 0.9375 20.668 0.9375H25.1523C25.9648 0.9375 26.6263 1.59375 26.6263 2.41146C26.6263 6.82292 31.9753 9.03646 35.0951 5.91667C35.668 5.34375 36.6055 5.34375 37.1784 5.91667L40.3503 9.08854C40.9232 9.66146 40.9232 10.5937 40.3503 11.1719C37.2253 14.2917 39.444 19.6406 43.8555 19.6406C44.6732 19.6406 45.3294 20.3021 45.3294 21.1146V25.5938C45.3294 26.1406 45.0378 26.6146 44.5951 26.8698L44.2773 26.276C43.7982 25.3385 42.8294 24.7448 41.7721 24.7448C40.7148 24.7448 39.7461 25.3333 39.2617 26.276V26.2813L32.2201 39.3698ZM22.9128 36.7969C30.3138 36.7969 36.3555 30.7552 36.3555 23.3542C36.3555 15.9531 30.3138 9.91146 22.9128 9.91146C15.5065 9.91146 9.47005 15.9531 9.47005 23.3542C9.47005 30.7552 15.5065 36.7969 22.9128 36.7969ZM21.5482 24.0833H11.4961C11.4961 19.8073 13.6992 16.0365 17.0326 13.8385C17.0951 13.7344 17.1836 13.6406 17.2982 13.5781C17.5534 13.4271 17.8138 13.2917 18.0794 13.1615C18.4388 12.9896 18.8659 13.1406 19.043 13.5C19.2148 13.8594 19.0586 14.2917 18.7044 14.4635C18.569 14.526 18.4388 14.5937 18.3138 14.6615L22.4753 21.875C22.6159 21.8333 22.7617 21.8125 22.9128 21.8125C23.2096 21.8125 23.4909 21.8958 23.7305 22.0417L31.0534 17.7604C31.0482 17.7552 31.043 17.7448 31.0326 17.7344C30.8086 17.4115 30.8867 16.9583 31.2148 16.7344C31.5378 16.5052 31.9909 16.5833 32.2148 16.9115C32.3867 17.151 32.543 17.401 32.694 17.6563C32.8971 18 32.7826 18.4427 32.4388 18.6406C32.3919 18.6667 32.3451 18.6927 32.2982 18.7083L24.4544 23.2865C24.4596 23.3125 24.4596 23.3333 24.4596 23.3542C24.4596 24.2083 23.7669 24.901 22.9128 24.901C22.3242 24.901 21.8086 24.5677 21.5482 24.0833ZM28.9076 15.5156C28.5898 15.276 28.5273 14.8229 28.7721 14.5052C29.0117 14.1875 29.4648 14.1302 29.7826 14.3698C30.2513 14.7292 30.6888 15.1198 31.1003 15.5469C31.3711 15.8333 31.3659 16.2917 31.0742 16.5677C30.7878 16.8438 30.3346 16.8333 30.0586 16.5469C29.6992 16.1719 29.3138 15.8281 28.9076 15.5156ZM20.1367 13.9063C19.7565 14.0208 19.3555 13.8021 19.2409 13.4219C19.1263 13.0417 19.3451 12.6406 19.7253 12.526C20.2878 12.3594 20.8659 12.2344 21.4544 12.1563C21.8503 12.1042 22.2096 12.3802 22.2669 12.776C22.319 13.1719 22.0378 13.5313 21.6471 13.5833C21.1315 13.6563 20.6263 13.7604 20.1367 13.9063ZM23.1836 13.5052C22.7878 13.4948 22.4701 13.1615 22.4805 12.7656C22.4909 12.3698 22.819 12.0521 23.2201 12.0625C23.8138 12.0781 24.4023 12.1354 24.9753 12.2396C25.3659 12.3125 25.6263 12.6875 25.5534 13.0781C25.4857 13.474 25.1055 13.7292 24.7148 13.6615C24.2148 13.5677 23.7044 13.5156 23.1836 13.5052ZM26.2044 14.0573C25.8294 13.9219 25.6315 13.5104 25.7617 13.1354C25.8971 12.7604 26.3086 12.5625 26.6836 12.6979C27.2409 12.8906 27.7826 13.1302 28.2982 13.4115C28.6471 13.599 28.7773 14.0365 28.5898 14.3906C28.4023 14.7396 27.9648 14.8698 27.6107 14.6823C27.1628 14.4375 26.694 14.2292 26.2044 14.0573ZM40.543 26.9427C40.7773 26.4792 41.2513 26.1823 41.7721 26.1823C42.293 26.1823 42.7669 26.4792 43.0013 26.9427L50.3034 40.526C50.5169 40.9531 50.4961 41.4583 50.2461 41.8646C49.9961 42.2656 49.5534 42.5156 49.0794 42.5156H34.4648C33.9909 42.5156 33.5482 42.2656 33.2982 41.8646C33.0482 41.4583 33.0221 40.9531 33.2357 40.526L40.543 26.9427ZM41.7721 40.0365C42.3398 40.0365 42.8034 39.5781 42.8034 39.0104C42.8034 38.4375 42.3398 37.9792 41.7721 37.9792C41.2044 37.9792 40.7409 38.4375 40.7409 39.0104C40.7409 39.5781 41.2044 40.0365 41.7721 40.0365ZM41.0482 30.8021V36.5104C41.0482 36.9063 41.3711 37.2292 41.7721 37.2292C42.168 37.2292 42.4909 36.9063 42.4909 36.5104V30.8021C42.4909 30.4063 42.168 30.0781 41.7721 30.0781C41.3711 30.0781 41.0482 30.4063 41.0482 30.8021Z" fill="#E7862A"/>
</g>
</svg>
