<svg width="50" height="50" viewBox="0 0 50 50" fill="none" xmlns="http://www.w3.org/2000/svg">
<mask id="mask0_4902_8859" style="mask-type:luminance" maskUnits="userSpaceOnUse" x="0" y="0" width="50" height="50">
<path d="M0.0683594 0H49.0423V49.974H0.0683594V0Z" fill="white"/>
</mask>
<g mask="url(#mask0_4902_8859)">
<path d="M24.355 0C24.3237 0 24.2872 0 24.2404 0C23.7299 0.0260413 23.2039 0.270834 22.8602 0.651042L17.0789 7.01042C16.532 7.60938 16.4279 8.68229 16.8445 9.375C17.2612 10.0625 18.2664 10.4687 19.0425 10.2656C19.0425 10.2656 19.0425 10.2656 19.0477 10.2656L21.2716 9.6875V18.599C21.2768 19.4375 21.8497 20.25 22.6466 20.5313L24.6622 21.2448C24.855 21.3125 25.0581 21.349 25.2612 21.3542C26.3602 21.3958 27.3862 20.4063 27.3862 19.3073V9.6875L29.6154 10.2656C30.3966 10.4687 31.3966 10.0625 31.8133 9.375C32.23 8.68229 32.1258 7.60937 31.5841 7.01563L25.7977 0.651042C25.4487 0.260416 24.9018 0.0156257 24.3758 0.00520833C24.3706 3.33413e-07 24.3602 0 24.355 0ZM6.31849 15.8073C5.91224 15.8229 5.49037 16.0208 5.21433 16.3229C5.21433 16.3229 5.21433 16.3229 5.21433 16.3281L0.584117 21.4167C0.151825 21.8906 0.0684918 22.75 0.401825 23.3021C0.735159 23.8542 1.53724 24.1823 2.16224 24.0156L3.94349 23.5573V30.6823C3.94349 31.3594 4.40703 32.0104 5.04245 32.2292L6.65183 32.7969C6.80808 32.8542 6.96953 32.8802 7.1362 32.8906C8.01641 32.9219 8.83412 32.1302 8.83412 31.25V23.5573L10.6154 24.0156C11.2404 24.1823 12.0425 23.8542 12.381 23.3021C12.7143 22.75 12.6258 21.8906 12.1935 21.4167L7.56328 16.3281V16.3229C7.28203 16.0156 6.84974 15.8177 6.42787 15.8073C6.42266 15.8073 6.41745 15.8073 6.40703 15.8073C6.38099 15.8073 6.35495 15.8073 6.31849 15.8073ZM42.1987 15.8073C41.7925 15.8229 41.3706 16.0208 41.0945 16.3229C41.0945 16.3229 41.0945 16.3229 41.0945 16.3281L36.4643 21.4167C36.032 21.8906 35.9435 22.75 36.282 23.3021C36.6154 23.8542 37.4175 24.1823 38.0425 24.0156L39.8237 23.5573V30.6823C39.8237 31.3594 40.2872 32.0104 40.9227 32.2292L42.532 32.7969C42.6883 32.8542 42.855 32.8802 43.0164 32.8906C43.8966 32.9219 44.7143 32.1302 44.7143 31.25V23.5573L46.5008 24.0156C47.1206 24.1823 47.9279 23.8542 48.2612 23.3021C48.5945 22.75 48.506 21.8906 48.0737 21.4167L43.4435 16.3281V16.3229C43.1622 16.0156 42.73 15.8177 42.3081 15.8073C42.3029 15.8073 42.2977 15.8073 42.2872 15.8073C42.2612 15.8073 42.2352 15.8073 42.2039 15.8073H42.1987ZM24.3289 24.0052C17.2508 24.0052 11.5164 29.7396 11.5164 36.8177C11.5164 43.8958 17.256 49.6302 24.3289 49.6302C31.407 49.6302 37.1414 43.8958 37.1414 36.8177C37.1414 29.7448 31.407 24.0052 24.3289 24.0052ZM24.8862 27.2083C25.3185 27.1927 25.6779 27.5313 25.6935 27.9635C25.6935 27.9688 25.6935 27.9792 25.6935 27.9844V29.2917C26.2872 29.4375 26.855 29.6823 27.3706 30.0208C28.2872 30.625 29.006 31.4948 29.4279 32.5104C29.6727 33.1042 29.3914 33.7865 28.7977 34.0313C28.7977 34.0365 28.7925 34.0365 28.7925 34.0365L28.4227 34.1875C27.8289 34.4271 27.1518 34.1458 26.907 33.5521C26.6987 33.0521 26.3237 32.599 25.8706 32.3021C25.3758 31.9792 24.7456 31.8177 24.1779 31.8802C23.6102 31.9375 23.0425 32.2188 22.6779 32.625C22.4018 32.9219 22.2247 33.3177 22.1935 33.6563C22.157 33.9844 22.2716 34.349 22.4383 34.5521C22.6154 34.7656 23.0008 35 23.5164 35.1823C23.8654 35.3073 24.2247 35.4063 24.5893 35.4792C25.0841 35.5729 25.5789 35.7135 26.0529 35.8802C26.7872 36.1458 27.6518 36.5417 28.3185 37.3438C29.0008 38.1771 29.2768 39.224 29.1779 40.2396C29.0841 41.2396 28.6362 42.1406 28.006 42.8438C27.3706 43.5365 26.5685 44.0313 25.6883 44.2865V45.2396C25.6883 45.5729 25.48 45.8646 25.1675 45.974L24.006 46.3854C23.5997 46.526 23.1518 46.3125 23.0112 45.9063C22.9852 45.8229 22.9695 45.7344 22.9695 45.6458V44.3438C22.3706 44.1979 21.8029 43.9479 21.2872 43.6094C20.3706 43.0104 19.6518 42.1406 19.23 41.125C18.9852 40.5313 19.2664 39.849 19.8602 39.599H19.8654L20.2352 39.4479C20.8289 39.2083 21.506 39.4896 21.7508 40.0833C21.9539 40.5781 22.3341 41.0313 22.7872 41.3281C23.282 41.6563 23.9122 41.8125 24.48 41.7552C25.0425 41.6979 25.6154 41.4115 25.98 41.0052C26.256 40.7031 26.4331 40.3177 26.4643 39.9792C26.4956 39.651 26.3862 39.2865 26.2143 39.0781C26.0425 38.8698 25.6518 38.6354 25.1414 38.4479C24.7872 38.3229 24.4331 38.224 24.0685 38.151C23.5737 38.0573 23.0789 37.9219 22.5997 37.75C21.8706 37.4896 21.0008 37.0885 20.3393 36.2865C19.6518 35.4583 19.381 34.401 19.4747 33.3906C19.5737 32.3906 20.0164 31.4896 20.6518 30.7917C21.282 30.0938 22.0893 29.6042 22.9695 29.3438V28.3906C22.9695 28.0625 23.1779 27.7708 23.4852 27.6615L24.6518 27.25C24.73 27.224 24.8081 27.2083 24.8862 27.2083Z" fill="#EE8454"/>
</g>
</svg>
