<svg width="57" height="44" viewBox="0 0 57 44" fill="none" xmlns="http://www.w3.org/2000/svg">
<mask id="mask0_4902_8857" style="mask-type:luminance" maskUnits="userSpaceOnUse" x="12" y="0" width="17" height="23">
<path d="M12.666 0.28125H28.666V22.3333H12.666V0.28125Z" fill="white"/>
</mask>
<g mask="url(#mask0_4902_8857)">
<path d="M18.2656 9.25L27.6823 18.6667C27.6979 18.6823 27.6979 18.7135 27.6823 18.7292L25.1354 21.2917C25.1198 21.3073 25.0885 21.3073 25.0729 21.2917L13.0469 9.25C13.0313 9.23437 13.0313 9.20313 13.0469 9.1875L21.9115 0.328125C21.9271 0.3125 21.9583 0.3125 21.974 0.328125L27.6823 6.02083C27.6979 6.03646 27.6979 6.06771 27.6823 6.08333L25.1354 8.63021C25.1198 8.64583 25.0885 8.64583 25.0729 8.63021L21.974 5.54688C21.9583 5.53125 21.9271 5.53125 21.9115 5.54688L18.2656 9.1875C18.25 9.20313 18.25 9.23437 18.2656 9.25Z" fill="#EE8454"/>
</g>
<mask id="mask1_4902_8857" style="mask-type:luminance" maskUnits="userSpaceOnUse" x="22" y="0" width="23" height="16">
<path d="M22 0.28125H44.6667V15.6667H22V0.28125Z" fill="white"/>
</mask>
<g mask="url(#mask1_4902_8857)">
<path d="M38.291 9.17187L34.6452 5.51562C34.6296 5.5 34.5983 5.5 34.5671 5.51562L25.1504 14.9167C25.1348 14.9323 25.1035 14.9323 25.0723 14.9167L22.541 12.3854C22.5254 12.3698 22.5254 12.3385 22.541 12.3073L34.5671 0.296874C34.5827 0.28125 34.6139 0.28125 34.6452 0.296874L43.4941 9.14062C43.5098 9.15625 43.5098 9.1875 43.4941 9.21875L37.8118 14.9167C37.7962 14.9323 37.765 14.9323 37.7337 14.9167L35.2025 12.3854C35.1868 12.3698 35.1868 12.3385 35.2025 12.3073L38.291 9.23437C38.3223 9.23437 38.3223 9.20313 38.291 9.17187Z" fill="#EE8454"/>
</g>
<path d="M31.4688 9.79163L40.3438 18.6666C40.3594 18.6823 40.3594 18.6979 40.3438 18.7135L37.7813 21.276C37.7656 21.2916 37.75 21.2916 37.7344 21.276L28.8594 12.401C28.8437 12.3854 28.8437 12.3698 28.8594 12.3541L31.4219 9.79163C31.4375 9.776 31.4531 9.776 31.4688 9.79163Z" fill="#EE8454"/>
<mask id="mask2_4902_8857" style="mask-type:luminance" maskUnits="userSpaceOnUse" x="0" y="11" width="22" height="21">
<path d="M0.384766 11.6666H21.9993V31.6666H0.384766V11.6666Z" fill="white"/>
</mask>
<g mask="url(#mask2_4902_8857)">
<path d="M9.34375 25.5521L18.776 16.1198C18.7917 16.1042 18.8229 16.1042 18.8385 16.1198L21.3854 18.6667C21.401 18.6823 21.401 18.7135 21.3854 18.7292L9.35937 30.7708C9.34375 30.7865 9.3125 30.7865 9.29687 30.7708L0.421874 21.8958C0.40625 21.8802 0.40625 21.849 0.421874 21.8333L9.29687 12.9531C9.3125 12.9375 9.34375 12.9375 9.35937 12.9531L15.0729 18.6667C15.0885 18.6823 15.0885 18.7135 15.0729 18.7292L12.526 21.276C12.5104 21.2917 12.4792 21.2917 12.4635 21.276L9.35937 18.1719C9.34375 18.1563 9.3125 18.1563 9.29687 18.1719L5.64062 21.849C5.625 21.8646 5.625 21.8958 5.64062 21.9115L9.29687 25.5833C9.29687 25.5677 9.32813 25.5677 9.34375 25.5521Z" fill="#EE8454"/>
</g>
<mask id="mask3_4902_8857" style="mask-type:luminance" maskUnits="userSpaceOnUse" x="34" y="11" width="23" height="21">
<path d="M34 11.6666H56.3594V31.6666H34V11.6666Z" fill="white"/>
</mask>
<g mask="url(#mask3_4902_8857)">
<path d="M37.75 27.5885L35.2031 25.0417C35.1875 25.026 35.1875 24.9948 35.2031 24.9792L47.2292 12.9375C47.2448 12.9219 47.276 12.9219 47.2917 12.9375L56.1667 21.8177C56.1823 21.8333 56.1823 21.8646 56.1667 21.8802L47.2917 30.7396C47.276 30.7552 47.2448 30.7552 47.2292 30.7396L41.5313 25.026C41.5156 25.0104 41.5156 24.9792 41.5313 24.9635L44.0781 22.4167C44.0937 22.401 44.125 22.401 44.1406 22.4167L47.2448 25.5208C47.2604 25.5365 47.2917 25.5365 47.3073 25.5208L50.9635 21.8646C50.9792 21.849 50.9792 21.8177 50.9635 21.8021L47.3073 18.1406C47.2917 18.125 47.2604 18.125 47.2448 18.1406L37.8125 27.5729C37.7813 27.6042 37.7656 27.6042 37.75 27.5885Z" fill="#EE8454"/>
</g>
<path d="M31.4681 16.1041L34.015 18.651C34.0306 18.6666 34.0306 18.6823 34.015 18.6979L25.1504 27.5885C25.1348 27.6041 25.1191 27.6041 25.1035 27.5885L22.5566 25.0416C22.541 25.026 22.541 25.0104 22.5566 24.9948L31.4212 16.1041C31.4212 16.0885 31.4525 16.0885 31.4681 16.1041Z" fill="#EE8454"/>
<path d="M25.0879 33.9062L16.2285 25.0416C16.2129 25.026 16.2129 24.9948 16.2285 24.9791L18.7754 22.4323C18.791 22.4166 18.8223 22.4166 18.8379 22.4323L27.6973 31.2968C27.7129 31.3125 27.7129 31.3437 27.6973 31.3593L25.1504 33.8906C25.1348 33.9218 25.1035 33.9218 25.0879 33.9062Z" fill="#EE8454"/>
<mask id="mask4_4902_8857" style="mask-type:luminance" maskUnits="userSpaceOnUse" x="28" y="22" width="17" height="22">
<path d="M28.666 22.3334H44.666V43.2605H28.666V22.3334Z" fill="white"/>
</mask>
<g mask="url(#mask4_4902_8857)">
<path d="M38.3073 34.448L28.8906 25.0261C28.875 25.0105 28.875 24.9792 28.8906 24.9636L31.4219 22.4167C31.4375 22.4011 31.4688 22.4011 31.4844 22.4167L43.4948 34.448C43.5104 34.4584 43.5104 34.4897 43.4948 34.5053L34.6302 43.3542C34.6146 43.3699 34.5833 43.3699 34.5677 43.3542L28.8594 37.6563C28.8437 37.6407 28.8437 37.6095 28.8594 37.5938L31.4063 35.0626C31.4219 35.047 31.4531 35.047 31.4688 35.0626L34.5521 38.1511C34.5677 38.1667 34.599 38.1667 34.6146 38.1511L38.276 34.4897C38.3229 34.4897 38.3229 34.474 38.3073 34.448Z" fill="#EE8454"/>
</g>
<mask id="mask5_4902_8857" style="mask-type:luminance" maskUnits="userSpaceOnUse" x="12" y="27" width="24" height="17">
<path d="M12.666 27.6666H35.3327V43.2604H12.666V27.6666Z" fill="white"/>
</mask>
<g mask="url(#mask5_4902_8857)">
<path d="M18.2812 34.5208L21.9427 38.1823C21.9583 38.1979 21.9896 38.1979 22.0052 38.1823L31.4219 28.7813C31.4375 28.7656 31.4687 28.7656 31.4844 28.7813L34.0156 31.3281C34.0312 31.3437 34.0312 31.375 34.0156 31.3906L22.0052 43.3854C21.9896 43.401 21.9583 43.401 21.9427 43.3854L13.0937 34.5365C13.0781 34.5208 13.0781 34.4896 13.0937 34.474L18.7917 28.7813C18.8073 28.7656 18.8385 28.7656 18.8542 28.7813L21.3854 31.3125C21.401 31.3281 21.401 31.3594 21.3854 31.375L18.2812 34.4583C18.25 34.4583 18.25 34.4896 18.2812 34.5208Z" fill="#EE8454"/>
</g>
</svg>
