<svg width="53" height="53" viewBox="0 0 53 53" fill="none" xmlns="http://www.w3.org/2000/svg">
<mask id="mask0_4902_8858" style="mask-type:luminance" maskUnits="userSpaceOnUse" x="0" y="0" width="53" height="53">
<path d="M0.0839844 0.302124H52.0579V52.2761H0.0839844V0.302124Z" fill="white"/>
</mask>
<g mask="url(#mask0_4902_8858)">
<path d="M51.599 32.375C51.599 38.6459 51.599 44.9167 51.599 51.1875C51.599 52.3229 51.2917 52.6302 50.1719 52.6302H30.9219V47.1615C33.7708 48 35.9479 47.2084 37.401 44.8073C37.6667 44.3594 37.8594 43.8854 37.974 43.3802C38.0938 42.875 38.1302 42.3646 38.0885 41.849C38.0469 41.3334 37.9271 40.8386 37.7292 40.3594C37.5313 39.8802 37.2656 39.4427 36.9323 39.0469C35.375 37.1771 33.349 36.625 30.9063 37.4115V31.9479C30.9635 31.9375 31.0208 31.9323 31.0833 31.9271H32.224C34.125 31.9271 36.026 31.9271 37.9271 31.9375H37.9583C38.1823 31.9792 38.3958 31.9427 38.6042 31.8386C38.8073 31.7344 38.9583 31.5781 39.0625 31.375C39.1458 31.1615 39.1615 30.9375 39.1094 30.7136C39.0573 30.4896 38.9427 30.2969 38.7708 30.1406C38.5 29.8386 38.2917 29.4948 38.1563 29.1094C38.0156 28.724 37.9479 28.3281 37.9583 27.9219C37.9688 27.5104 38.0521 27.1198 38.2135 26.7448C38.375 26.3698 38.5938 26.0365 38.8802 25.7448C39.1667 25.4479 39.4948 25.2188 39.8646 25.0469C40.2396 24.875 40.6302 24.7813 41.0365 24.7552C41.4427 24.7344 41.8438 24.7865 42.2292 24.9115C42.6198 25.0417 42.974 25.2344 43.2865 25.4896C43.6302 25.7709 43.9063 26.1042 44.1094 26.4948C44.3125 26.8854 44.4375 27.2969 44.4688 27.7396C44.5052 28.1771 44.4531 28.6094 44.3125 29.0261C44.1719 29.4427 43.9583 29.8177 43.6667 30.1459C43.4792 30.2917 43.3594 30.4792 43.3021 30.7084C43.25 30.9375 43.2708 31.1615 43.3698 31.375C43.4844 31.5834 43.651 31.7396 43.8646 31.8438C44.0833 31.9479 44.3073 31.9792 44.5469 31.9375C46.3125 31.9219 48.0833 31.9271 49.8802 31.9271H51.5729V31.9688C51.5885 32.1094 51.599 32.2448 51.599 32.375ZM34.1458 45.2604C34.5833 45.0677 34.9583 44.7969 35.276 44.4427C35.5938 44.0886 35.8177 43.6823 35.9583 43.2292C36.099 42.7761 36.1354 42.3125 36.0677 41.8386C36.0052 41.3698 35.8438 40.9323 35.5885 40.5313C35.3333 40.1302 35.0104 39.8021 34.6094 39.5469C34.2083 39.2865 33.776 39.125 33.3021 39.0573C32.8333 38.9948 32.3698 39.0261 31.9167 39.1615C31.4583 39.3021 31.0521 39.5261 30.6979 39.8386C30.5208 39.9896 29.9844 40.4531 29.4479 40.0886C29.1198 39.8438 28.9375 39.5156 28.9063 39.1042C28.8854 37.4375 28.901 35.7344 28.9063 34.0938L28.9167 32.2552C28.9167 32.1615 28.9063 32.0677 28.8906 31.974H23.4635C24.0833 34.9792 23.4688 36.9167 21.4844 38.2396C21.0521 38.5313 20.5781 38.7552 20.0781 38.9063C19.5729 39.0573 19.0625 39.1302 18.5365 39.125C18.0104 39.1198 17.5 39.0365 17 38.875C16.5 38.7136 16.0313 38.4844 15.6042 38.1823C13.6719 36.8438 13.0625 34.8698 13.7083 31.9844H8.26042V51.1771C8.26042 52.3594 8.53125 52.6302 9.71354 52.6302H28.9063C28.9167 52.5834 28.9271 52.5313 28.9323 52.4844V51.2292C28.9323 49.3646 28.9323 47.5 28.9219 45.6354C28.8802 45.4011 28.9063 45.1771 29.0052 44.9584C29.1042 44.7396 29.2552 44.5677 29.4635 44.4479C29.6823 44.3438 29.9115 44.3177 30.151 44.375C30.3854 44.4271 30.5833 44.5521 30.7396 44.7396C31.1979 45.1667 31.7396 45.4323 32.3646 45.5261C32.9844 45.6198 33.5781 45.5313 34.1458 45.2604ZM8.49479 21.3646C8.52083 21.1198 8.51042 20.875 8.46875 20.6354C8.4375 20.4375 8.42188 20.2396 8.42188 20.0417V19.974C8.42188 19.6198 8.42708 19.1771 8.67188 18.974C8.94271 18.8125 9.23437 18.7604 9.54167 18.8073C9.61979 18.8073 9.69792 18.8073 9.77604 18.8073C9.89583 18.8177 10.0052 18.849 10.1094 18.9115C10.1458 18.9323 10.1823 18.9479 10.2135 18.9636L14.7656 20.7656L16.1615 17.25C13.9792 16.9271 12.6615 15.7552 12.2448 13.7656C12.0521 12.9688 12.0938 12.1875 12.3802 11.4219C12.6667 10.6511 13.1458 10.0313 13.8125 9.55731C15.5208 8.27085 17.3333 8.28648 19.2135 9.59377L20.599 6.09377C20.5365 6.06252 20.4896 6.03648 20.4375 6.01564L18.4792 5.2396C14.5573 3.68231 10.6354 2.12502 6.71354 0.567728C6.09375 0.322937 5.86979 0.427102 5.61458 1.07814C3.94271 5.26564 2.27604 9.45315 0.614583 13.6459L0.302083 14.4167C0.244793 14.5625 0.192709 14.7136 0.135417 14.8698L0.109375 14.9427L4.65104 16.75C4.70833 16.7709 4.77083 16.7917 4.83333 16.8177C5.22917 16.9636 5.72396 17.1459 5.80729 17.7604C5.88542 18.3698 5.45313 18.6406 5.10417 18.8542C5.03125 18.8959 4.96354 18.9323 4.90104 18.9792C4.46354 19.2761 4.16146 19.6771 3.99479 20.1823C3.82813 20.6875 3.83333 21.1875 4.01042 21.6875C4.1875 22.1875 4.49479 22.5834 4.94271 22.875C5.38542 23.1615 5.86979 23.2865 6.40104 23.2448C6.92708 23.2136 7.38542 23.0209 7.77604 22.6719C8.16667 22.3177 8.40625 21.8854 8.49479 21.3646ZM50.2031 9.3021C43.9115 9.3021 37.6198 9.3021 31.3333 9.3021C31.1979 9.3021 31.0677 9.31252 30.9271 9.32294H30.8854V11.0052C30.8854 12.8177 30.8802 14.5365 30.901 16.2865C30.974 16.7813 30.8021 17.1615 30.3802 17.4271C30.1719 17.5417 29.9479 17.5781 29.7135 17.5365C29.4792 17.4948 29.2865 17.3854 29.125 17.2084C28.8177 16.9271 28.4687 16.7136 28.0781 16.5677C27.6823 16.4219 27.2813 16.3542 26.8594 16.3646C26.4427 16.3802 26.0417 16.4688 25.6615 16.6354C25.276 16.8073 24.9427 17.0417 24.651 17.3438C24.3594 17.6406 24.1302 17.9844 23.9688 18.3698C23.8073 18.7552 23.724 19.1563 23.7188 19.5729C23.7083 19.9896 23.7813 20.3959 23.9271 20.7865C24.0729 21.1771 24.2865 21.5313 24.5729 21.8386C24.849 22.1459 25.1771 22.3959 25.5573 22.5781C25.9323 22.7604 26.3281 22.8646 26.7448 22.8959C27.1615 22.9219 27.5729 22.8698 27.9688 22.7396C28.3646 22.6094 28.724 22.4063 29.0417 22.1354C29.1927 21.9375 29.3854 21.8073 29.6302 21.75C29.8698 21.6927 30.1042 21.7188 30.3281 21.8281C30.5469 21.9375 30.7135 22.1042 30.8125 22.3281C30.9167 22.5573 30.9375 22.7917 30.8698 23.0313C30.8698 24.6979 30.8698 26.3698 30.8698 28.0417V29.9479H36.3594C35.5729 27.5052 36.1198 25.4792 38 23.9167C38.401 23.5834 38.8438 23.3177 39.3281 23.1198C39.8125 22.9219 40.3125 22.8073 40.8385 22.7656C41.3594 22.7292 41.875 22.7709 42.3802 22.8906C42.8906 23.0156 43.3646 23.2136 43.8125 23.4844C46.1771 24.9479 46.9531 27.1146 46.1146 29.9427H51.6042V24.8281C51.6042 20.125 51.6042 15.4219 51.6042 10.7188C51.599 9.6094 51.2969 9.3021 50.2031 9.3021Z" fill="#EE8454"/>
</g>
</svg>
