<svg width="47" height="42" viewBox="0 0 47 42" fill="none" xmlns="http://www.w3.org/2000/svg">
<mask id="mask0_4912_8914" style="mask-type:luminance" maskUnits="userSpaceOnUse" x="3" y="22" width="10" height="20">
<path d="M3.3335 22.6665H12.6668V41.4165H3.3335V22.6665Z" fill="white"/>
</mask>
<g mask="url(#mask0_4912_8914)">
<path d="M11.0055 23.4321H4.54199C4.14616 23.4321 3.82324 23.755 3.82324 24.1509V40.6665C3.82324 41.0623 4.14616 41.3853 4.54199 41.3853H11.0055C11.4014 41.3853 11.7243 41.0623 11.7243 40.6665V24.1509C11.7243 23.755 11.4014 23.4321 11.0055 23.4321Z" fill="#EE8454"/>
</g>
<mask id="mask1_4912_8914" style="mask-type:luminance" maskUnits="userSpaceOnUse" x="14" y="26" width="10" height="16">
<path d="M14 26.6665H23.3333V41.4165H14V26.6665Z" fill="white"/>
</mask>
<g mask="url(#mask1_4912_8914)">
<path d="M21.776 27.0259H15.3125C14.9219 27.0259 14.5938 27.3488 14.5938 27.7446V40.6665C14.5938 41.0623 14.9219 41.3853 15.3125 41.3853H21.776C22.1719 41.3853 22.4948 41.0623 22.4948 40.6665V27.7446C22.4948 27.3488 22.1719 27.0259 21.776 27.0259Z" fill="#EE8454"/>
</g>
<mask id="mask2_4912_8914" style="mask-type:luminance" maskUnits="userSpaceOnUse" x="24" y="12" width="10" height="30">
<path d="M24.6665 12H33.9998V41.4167H24.6665V12Z" fill="white"/>
</mask>
<g mask="url(#mask2_4912_8914)">
<path d="M32.5519 12.6616H26.0884C25.6925 12.6616 25.3696 12.9845 25.3696 13.3804V40.6668C25.3696 41.0627 25.6925 41.3856 26.0884 41.3856H32.5519C32.9425 41.3856 33.2707 41.0627 33.2707 40.6668V13.3804C33.2707 12.9845 32.9425 12.6616 32.5519 12.6616Z" fill="#EE8454"/>
</g>
<mask id="mask3_4912_8914" style="mask-type:luminance" maskUnits="userSpaceOnUse" x="35" y="32" width="10" height="10">
<path d="M35.3335 32H44.6668V41.4167H35.3335V32Z" fill="white"/>
</mask>
<g mask="url(#mask3_4912_8914)">
<path d="M43.3229 33.1304H36.8594C36.4635 33.1304 36.1406 33.4533 36.1406 33.8491V40.6668C36.1406 41.0627 36.4635 41.3856 36.8594 41.3856H43.3229C43.7187 41.3856 44.0417 41.0627 44.0417 40.6668V33.8491C44.0417 33.4533 43.7187 33.1304 43.3229 33.1304Z" fill="#EE8454"/>
</g>
<mask id="mask4_4912_8914" style="mask-type:luminance" maskUnits="userSpaceOnUse" x="0" y="0" width="47" height="28">
<path d="M0.953125 0.4375H46.9271V28H0.953125V0.4375Z" fill="white"/>
</mask>
<g mask="url(#mask4_4912_8914)">
<path d="M46.6979 23.5417L44.5417 21.3854C44.2552 21.099 43.8229 21.099 43.5365 21.3854C43.25 21.6719 43.25 22.1042 43.5365 22.3906L44.5781 23.4323H40.5573L29.9635 0.885417C29.8594 0.630209 29.6042 0.453125 29.3177 0.453125C29.0313 0.453125 28.8177 0.593749 28.6719 0.848958L17.4688 22.8958L12.5521 16.1823C12.4063 16 12.1927 15.8906 11.974 15.8906H3.39063L4.32813 14.9583C4.61458 14.6719 4.61458 14.2396 4.32813 13.9531C4.04167 13.6667 3.60937 13.6667 3.32292 13.9531L1.16667 16.1094C1.02083 16.25 0.953125 16.4323 0.953125 16.6094C0.953125 16.7917 1.02083 16.9687 1.16667 17.1146L3.32292 19.2656C3.46354 19.4115 3.64583 19.4844 3.82292 19.4844C4.00521 19.4844 4.18229 19.4115 4.32813 19.2656C4.61458 18.9792 4.61458 18.5521 4.32813 18.2604L3.39063 17.3281H11.5781L17 24.6927C17.1458 24.8698 17.3594 24.9792 17.5781 24.9792C17.6146 24.9792 17.6146 24.9792 17.651 24.9792C17.901 24.9427 18.1146 24.7969 18.224 24.5833L29.2813 2.78646L39.4427 24.4375C39.5521 24.6927 39.8021 24.8698 40.0885 24.8698H44.3281L43.5 25.6979C43.2135 25.9844 43.2135 26.4115 43.5 26.7031C43.6458 26.8437 43.8229 26.9167 44.0052 26.9167C44.1823 26.9167 44.3646 26.8437 44.5052 26.7031L46.6615 24.5469C46.8073 24.401 46.875 24.224 46.875 24.0417C46.9115 23.8646 46.8438 23.6823 46.6979 23.5417Z" fill="#EE8454"/>
</g>
</svg>
