<svg width="47" height="49" viewBox="0 0 47 49" fill="none" xmlns="http://www.w3.org/2000/svg">
<mask id="mask0_4912_8916" style="mask-type:luminance" maskUnits="userSpaceOnUse" x="0" y="23" width="47" height="26">
<path d="M0.953125 23H46.9271V48.5313H0.953125V23Z" fill="white"/>
</mask>
<g mask="url(#mask0_4912_8916)">
<path d="M46.974 23.4845C45.8646 23.2085 44.7292 23.6772 44.1406 24.6564L37.724 35.3491C37.5729 35.6043 37.2917 35.7658 36.9896 35.7658C35.276 35.7658 33.9479 37.2658 33.5417 37.7814C33.3906 39.5314 31.9167 40.9116 30.125 40.9116H19.8281C19.3542 40.9116 18.9688 40.5262 18.9688 40.0523C18.9688 39.5783 19.3542 39.1981 19.8281 39.1981H30.125C31.0729 39.1981 31.8438 38.4273 31.8438 37.4793V36.62C31.8438 35.6773 31.0729 34.9064 30.125 34.9064H22.401C22.0729 34.9064 21.7813 34.7345 21.6354 34.4377C21.5365 34.2502 19.9167 31.4741 13.8229 31.4741C7.64583 31.4741 6.07292 35.9898 6.05729 36.0366C5.9375 36.3856 5.60937 36.62 5.23958 36.62H0.953125V45.2033H5.23958C5.28646 45.2033 5.33854 45.2033 5.38542 45.2137L25.6927 48.5991L39.7448 41.1564L46.974 23.4845Z" fill="#EE8454"/>
</g>
<mask id="mask1_4912_8916" style="mask-type:luminance" maskUnits="userSpaceOnUse" x="15" y="0" width="25" height="37">
<path d="M15.3335 0.557129H39.3335V36.3332H15.3335V0.557129Z" fill="white"/>
</mask>
<g mask="url(#mask1_4912_8916)">
<path d="M36.9899 11.7393C31.4222 10.6247 28.7451 13.484 27.5524 15.6299V9.62988L31.9378 5.12988C32.9535 4.08822 32.9535 2.39551 31.9378 1.35384C31.4535 0.853841 30.8076 0.583008 30.1253 0.583008C29.443 0.583008 28.7972 0.853841 28.3128 1.35384L27.3076 2.38509C27.1462 2.55176 26.9274 2.6403 26.693 2.6403C26.4639 2.6403 26.2399 2.55176 26.0785 2.38509L25.0732 1.35384C24.5889 0.853841 23.943 0.583008 23.2607 0.583008C22.5785 0.583008 21.9326 0.853841 21.4482 1.35384C20.4326 2.39551 20.4326 4.08822 21.4482 5.12988L25.8337 9.62988V18.2028C24.641 16.057 21.9639 13.1976 16.3962 14.3122C16.3962 14.3122 16.3962 22.4059 25.8337 20.5101V26.3486C21.5107 26.5622 17.9066 28.3382 15.6045 29.8382C20.1618 30.2601 22.167 32.2601 22.8649 33.1872H30.1253C31.6253 33.1872 32.9066 34.1559 33.3701 35.4997C34.141 34.8486 35.2035 34.208 36.4899 34.0726L38.667 30.4424C36.4847 28.8747 32.4951 26.5882 27.5524 26.3486V17.9372C36.9899 19.833 36.9899 11.7393 36.9899 11.7393Z" fill="#EE8454"/>
</g>
</svg>
