<svg width="58" height="37" viewBox="0 0 58 37" fill="none" xmlns="http://www.w3.org/2000/svg">
<path d="M19.7239 26.9583L16.8697 30.7969C16.2603 31.6094 16.4322 32.7708 17.2447 33.375L17.4478 33.526C17.7759 33.7708 18.1614 33.8854 18.5416 33.8854C19.1041 33.8854 19.6666 33.6302 20.0259 33.1458L22.8801 29.3125C23.4843 28.5 23.3124 27.3385 22.4999 26.7344L22.302 26.5833C21.9739 26.3385 21.5884 26.2188 21.203 26.2188C20.6405 26.2188 20.0832 26.474 19.7239 26.9583Z" fill="#EE8454"/>
<mask id="mask0_4915_10081" style="mask-type:luminance" maskUnits="userSpaceOnUse" x="21" y="30" width="6" height="7">
<path d="M21.146 30.3125H26.9325V36.6146H21.146V30.3125Z" fill="white"/>
</mask>
<g mask="url(#mask0_4915_10081)">
<path d="M23.4325 30.9896L21.4898 33.6042C20.9481 34.3281 21.0991 35.3646 21.8231 35.9063L22.3439 36.2917C22.6356 36.5104 22.9794 36.6146 23.3231 36.6146C23.8231 36.6146 24.3231 36.3854 24.646 35.9531L26.5887 33.3385C27.1304 32.6146 26.9794 31.5781 26.2554 31.0365L25.7346 30.651C25.4429 30.4323 25.0991 30.3281 24.7554 30.3281C24.2554 30.3281 23.7554 30.5573 23.4325 30.9896Z" fill="#EE8454"/>
</g>
<path d="M13.0208 22.4478L12.2395 21.8644C11.9739 21.6665 11.6666 21.5728 11.3593 21.5728C10.9062 21.5728 10.4583 21.7811 10.1666 22.1665L8.8593 23.9269C8.37492 24.578 8.51034 25.5103 9.16138 25.9946L9.94784 26.5832C10.2083 26.7759 10.5208 26.8696 10.828 26.8696C11.2812 26.8696 11.7291 26.6665 12.0155 26.2759L13.328 24.5155C13.8124 23.8644 13.677 22.9373 13.0208 22.4478Z" fill="#EE8454"/>
<path d="M18.8335 22.7241C18.4793 22.4585 18.0678 22.3335 17.6564 22.3335C17.0574 22.3335 16.4585 22.6095 16.0731 23.1252L12.5887 27.8075C11.9428 28.6772 12.1251 29.9168 12.9949 30.5627C13.3439 30.8283 13.7553 30.9533 14.1668 30.9533C14.7085 30.9533 15.2501 30.7293 15.6303 30.3075C15.6876 30.2085 15.7553 30.1095 15.8231 30.0158L17.4793 27.797L18.6772 26.1825C18.7606 26.0731 18.8491 25.9689 18.9481 25.87L19.2345 25.4793C19.8856 24.6095 19.7033 23.37 18.8335 22.7241Z" fill="#EE8454"/>
<path d="M9.01583 0.885602L0.614784 15.9169C0.349159 16.3908 0.521034 16.995 0.994992 17.2606L3.89603 18.8804C4.3752 19.146 4.97416 18.9741 5.23978 18.5002L13.6408 3.46894C13.9065 2.99498 13.7398 2.39081 13.2606 2.12519L10.3596 0.505394C9.88562 0.23456 9.28145 0.406437 9.01583 0.885602Z" fill="#EE8454"/>
<mask id="mask1_4915_10081" style="mask-type:luminance" maskUnits="userSpaceOnUse" x="44" y="1" width="14" height="19">
<path d="M44.2085 1.0625H57.2918V19.7188H44.2085V1.0625Z" fill="white"/>
</mask>
<g mask="url(#mask1_4915_10081)">
<path d="M44.3335 4.16133L52.7346 19.1926C53.0002 19.6718 53.6044 19.8384 54.0783 19.5728L56.9794 17.953C57.4585 17.6874 57.6252 17.0832 57.3596 16.6093L48.9637 1.578C48.6929 1.10404 48.0939 0.932167 47.6148 1.19779L44.7137 2.81758C44.2398 3.08321 44.0679 3.68738 44.3335 4.16133Z" fill="#EE8454"/>
</g>
<path d="M47.7655 24.5259C47.7863 23.8332 47.4634 23.1718 46.9113 22.7551L42.5519 19.453C40.9738 18.3384 39.0103 17.0676 36.7082 15.6718C33.4634 13.6978 30.4061 11.9947 28.9894 11.2134C28.7707 11.0936 28.5103 11.0572 28.2655 11.1249L26.6717 11.5416C26.4374 11.6041 26.2342 11.7447 26.0988 11.9478C25.6561 12.5988 25.1665 13.1926 24.6353 13.7134C24.0155 14.3332 23.3592 14.8436 22.6821 15.2343C21.8749 15.703 21.0363 15.9999 20.203 16.1145C20.0155 16.1405 19.828 16.1561 19.6457 16.1561C18.9894 16.1561 18.3801 15.9843 17.8801 15.6666C17.2394 15.2603 16.828 14.6613 16.6926 13.9374C16.5311 13.1041 16.7499 12.1509 17.354 11.0207C17.7759 10.2238 18.3071 9.49989 18.6926 8.96864C18.7863 8.83843 18.8696 8.72384 18.9374 8.6353C19.203 8.25509 19.5155 7.8228 19.8644 7.36968C19.953 7.24988 19.8592 7.08322 19.7134 7.10405C18.979 7.18739 17.328 7.10405 14.7238 5.48947C14.4894 5.34884 14.1874 5.42697 14.0519 5.66134L6.8384 18.5728C6.68735 18.8488 6.72381 19.1822 6.93215 19.4166L8.8436 21.5676C8.86965 21.5988 8.90089 21.6249 8.93215 21.6457L9.12485 21.3905C9.38527 21.0363 9.73423 20.7499 10.1301 20.552C10.5103 20.3697 10.9321 20.2707 11.3592 20.2707C11.6509 20.2707 11.9374 20.3176 12.2186 20.4061C12.5051 20.4999 12.7707 20.6405 13.0155 20.8176L13.8019 21.4061C14.104 21.6301 14.3488 21.9061 14.5415 22.2291C14.5832 22.302 14.6249 22.3801 14.6613 22.4582C14.7082 22.5676 14.854 22.5832 14.9217 22.4895L15.0259 22.3488C15.3384 21.9322 15.7446 21.5936 16.2082 21.3645C16.6561 21.1457 17.1665 21.0311 17.6561 21.0311C17.9946 21.0311 18.3384 21.0832 18.6665 21.1874C19.0051 21.2968 19.3228 21.4634 19.6092 21.677C19.9634 21.9374 20.2551 22.2655 20.479 22.6457C20.6926 23.0103 20.828 23.4061 20.8905 23.828C20.9321 24.1197 20.9374 24.4113 20.9009 24.703C20.8905 24.8176 20.9842 24.9218 21.0988 24.9166C21.1353 24.9166 21.1717 24.9166 21.2082 24.9166C21.5311 24.9166 21.8644 24.9686 22.1769 25.0676C22.4999 25.177 22.8071 25.3332 23.078 25.5363L23.2811 25.6874C24.2655 26.4166 24.6978 27.6197 24.4999 28.7499C24.4738 28.8957 24.5884 29.0259 24.7342 29.0259C24.7446 29.0259 24.7499 29.0259 24.7603 29.0259C25.0676 29.0259 25.3749 29.0728 25.6665 29.1666C25.9738 29.2655 26.2551 29.4113 26.5155 29.6041L27.0311 29.9895C28.3384 30.9634 28.6092 32.8124 27.6353 34.1145L27.3801 34.4582C27.2603 34.6197 27.2915 34.8488 27.453 34.9686C27.479 34.9895 27.5103 35.0103 27.5467 35.0207C28.1249 35.2238 33.7186 37.1249 35.2967 34.4582C35.4009 34.2863 35.3332 34.0572 35.1509 33.9686L29.9321 31.4166C29.6196 31.2603 29.453 30.9009 29.5571 30.5676C29.6301 30.3228 29.8436 30.1041 30.3592 30.0832C30.4113 30.078 30.4686 30.0884 30.5155 30.1145L35.8801 32.9166C36.4842 33.2291 37.1717 33.3645 37.8436 33.2811C38.6717 33.177 39.5676 32.7499 39.6509 31.4009C39.6717 31.0468 39.4894 30.7082 39.1821 30.5311L32.4842 26.6301C32.2238 26.4791 32.0832 26.177 32.1301 25.8801C32.1769 25.6041 32.328 25.3176 32.7394 25.302C32.8749 25.2968 33.0051 25.3332 33.1249 25.4009L40.1613 29.4895C40.5103 29.6978 40.9165 29.7968 41.328 29.7759C42.0311 29.7447 43.0571 29.5311 43.4634 28.6145C43.8176 27.8072 43.5051 26.8645 42.7499 26.4113L35.0467 21.7863C34.8176 21.6509 34.6821 21.3957 34.703 21.1353C34.7238 20.7863 34.9009 20.3905 35.6144 20.5051C35.703 20.5155 35.7863 20.5468 35.8644 20.5936L44.6144 25.8124C45.2655 26.1978 46.0624 26.2603 46.7603 25.9634C47.2759 25.7447 47.7342 25.3228 47.7655 24.5259Z" fill="#EE8454"/>
<path d="M50.9637 18.896L43.6564 5.82829C43.5991 5.72412 43.4793 5.67204 43.3647 5.7085C42.8387 5.86475 42.1824 6.021 42.0887 6.03141C41.8074 6.06787 41.521 6.0835 41.2397 6.0835C40.2762 6.0835 39.3178 5.896 38.4064 5.5835C36.2918 4.85433 33.6616 4.646 31.3126 4.646C29.5783 4.646 27.9949 4.76058 26.8908 4.86475C25.9845 4.94808 25.1043 5.01579 24.2241 5.2762C23.396 5.521 22.6876 6.0835 22.1095 6.7085C21.9585 6.87516 21.8074 7.04183 21.6616 7.2137C21.0731 7.90641 20.5262 8.64079 20.0001 9.38037C19.2397 10.4689 16.8022 13.4377 18.5783 14.5679C18.896 14.771 19.271 14.8543 19.646 14.8543C19.7762 14.8543 19.9012 14.8439 20.0262 14.8231C21.4481 14.6304 22.7189 13.7814 23.7189 12.7918C24.2033 12.3127 24.6356 11.7762 25.021 11.2137C25.0887 11.12 25.3491 10.5418 25.4585 10.5106L27.9012 9.86995L28.7137 9.65641C28.7397 9.6512 28.7606 9.6512 28.7814 9.6512C28.8231 9.6512 28.8699 9.66162 28.9064 9.68245C30.1668 10.3647 41.1356 16.3804 47.4272 21.8127C47.5158 21.8856 47.646 21.8856 47.7293 21.8127L50.9481 19.172C51.0054 19.0887 51.0106 18.9845 50.9637 18.896Z" fill="#EE8454"/>
</svg>
