<svg width="41" height="48" viewBox="0 0 41 48" fill="none" xmlns="http://www.w3.org/2000/svg">
<path d="M31.1305 11.5052L34.4951 8.13542C35.016 7.61458 35.016 6.77083 34.4951 6.25C33.9743 5.72917 33.1305 5.72917 32.6097 6.25L29.292 9.56771C29.9587 10.151 30.5732 10.8021 31.1305 11.5052Z" fill="#EE8454"/>
<mask id="mask0_4912_8912" style="mask-type:luminance" maskUnits="userSpaceOnUse" x="19" y="0" width="4" height="7">
<path d="M19 0.380371H23V6.66683H19V0.380371Z" fill="white"/>
</mask>
<g mask="url(#mask0_4912_8912)">
<path d="M20.3441 6.17188C20.3545 6.17188 20.3649 6.17188 20.3805 6.17188C20.818 6.17188 21.2503 6.19792 21.6774 6.24479V1.72396C21.6774 0.984374 21.0785 0.390625 20.3441 0.390625C19.6045 0.390625 19.0107 0.984374 19.0107 1.72396V6.24479C19.4378 6.19792 19.8701 6.17188 20.3076 6.17188C20.318 6.17188 20.3285 6.17188 20.3441 6.17188Z" fill="#EE8454"/>
</g>
<path d="M9.55697 11.5052C10.1143 10.8021 10.7236 10.151 11.3903 9.56771L8.0778 6.25C7.55697 5.72917 6.70801 5.72917 6.19238 6.25C5.66634 6.77083 5.66634 7.61458 6.19238 8.13542L9.55697 11.5052Z" fill="#EE8454"/>
<mask id="mask1_4912_8912" style="mask-type:luminance" maskUnits="userSpaceOnUse" x="0" y="18" width="7" height="5">
<path d="M0.328125 18.6665H7V22.6665H0.328125V18.6665Z" fill="white"/>
</mask>
<g mask="url(#mask1_4912_8912)">
<path d="M6.27604 20.9684C6.27604 20.3226 6.32812 19.6924 6.40625 19.0674H1.66146C0.927082 19.0674 0.328125 19.6663 0.328125 20.4007C0.328125 21.1403 0.927082 21.7393 1.66146 21.7393H6.29688C6.28646 21.484 6.27604 21.2288 6.27604 20.9684Z" fill="#EE8454"/>
</g>
<path d="M6.19238 32.6668C5.66634 33.1877 5.66634 34.0314 6.19238 34.5575C6.70801 35.0783 7.55697 35.0783 8.0778 34.5575L10.5205 32.1095C9.96842 31.4897 9.39551 30.8022 8.85384 30.0054L6.19238 32.6668Z" fill="#EE8454"/>
<mask id="mask2_4912_8912" style="mask-type:luminance" maskUnits="userSpaceOnUse" x="16" y="45" width="9" height="3">
<path d="M16.333 45.3335H24.333V47.3595H16.333V45.3335Z" fill="white"/>
</mask>
<g mask="url(#mask2_4912_8912)">
<path d="M20.9368 45.8647H17.4368C17.4368 45.9064 17.4316 45.9429 17.4316 45.9845C17.4316 46.6877 18.5098 47.2554 19.5098 47.2554H21.1712C22.1712 47.2554 23.2546 46.6877 23.2546 45.9845C23.2546 45.9429 23.2493 45.9064 23.2493 45.8647H20.9368Z" fill="#EE8454"/>
</g>
<path d="M23.7396 42.625H16.9427C16.2448 42.625 15.6719 43.1979 15.6719 43.8958C15.6719 44.599 16.2448 45.1719 16.9427 45.1719H23.7396C24.4427 45.1719 25.0156 44.599 25.0156 43.8958C25.0156 43.1979 24.4427 42.625 23.7396 42.625Z" fill="#EE8454"/>
<path d="M23.7396 39.4116H16.9427C16.2448 39.4116 15.6719 39.9793 15.6719 40.6825C15.6719 41.3856 16.2448 41.9585 16.9427 41.9585H23.7396C24.4427 41.9585 25.0156 41.3856 25.0156 40.6825C25.0156 39.9793 24.4427 39.4116 23.7396 39.4116Z" fill="#EE8454"/>
<path d="M19.656 14.0054C18.1143 14.0679 17.0622 14.4845 16.2654 15.0575C15.4633 15.6304 14.906 16.396 14.5049 17.2085C13.7029 18.8335 13.6351 20.6356 13.6351 20.7606C13.6351 21.521 13.0206 22.1408 12.2601 22.1408C11.4997 22.1408 10.8799 21.521 10.8799 20.7606C10.8799 20.7033 10.8851 20.0002 11.0674 18.9897C11.2549 17.9845 11.6143 16.6564 12.3799 15.3439C12.8904 14.4793 13.5935 13.6147 14.5362 12.9064C15.7914 11.9637 17.4789 11.3231 19.5622 11.2554C20.3227 11.2293 20.9581 11.8231 20.9841 12.5835C21.0154 13.3439 20.4216 13.9845 19.656 14.0054ZM32.557 20.9689C32.557 18.1981 31.6351 15.6408 30.0831 13.5939C28.7185 11.7918 26.8695 10.3804 24.7237 9.55225L24.7393 9.48975L23.8227 9.22412C23.1091 9.01579 22.3799 8.87516 21.6299 8.79704L21.5258 8.78141H21.5154C21.1508 8.75016 20.7706 8.72412 20.3695 8.72412H20.3122C19.9164 8.72412 19.5362 8.75016 19.1664 8.78141H19.1612L19.0518 8.79704C18.307 8.87516 17.5726 9.01579 16.8643 9.22412L15.9737 9.48454L15.9841 9.54183C13.8331 10.37 11.9737 11.7866 10.6039 13.5939C9.05182 15.6408 8.12473 18.1981 8.12994 20.9689C8.12473 22.9481 8.46848 24.5835 9.00494 25.9325C9.80703 27.9585 11.031 29.3283 12.0101 30.3647C12.5049 30.8804 12.932 31.3231 13.2289 31.6981C13.531 32.0783 13.6716 32.3752 13.7185 32.6043C13.932 33.7397 13.9529 35.1668 13.9529 35.5314V35.6356C13.9529 37.2762 15.281 38.5991 16.9164 38.5991H23.7706C25.406 38.5991 26.7341 37.271 26.7341 35.6356V35.5366C26.7289 35.1772 26.7549 33.7397 26.9685 32.6095C26.9997 32.4481 27.0674 32.271 27.2081 32.0522C27.4424 31.6668 27.8851 31.1877 28.432 30.6147C29.2549 29.7554 30.3018 28.6616 31.1299 27.1147C31.9633 25.5679 32.557 23.5731 32.557 20.9689Z" fill="#EE8454"/>
<path d="M31.8337 30.0054C31.292 30.8022 30.7139 31.4897 30.167 32.1095L32.6097 34.5575C33.1305 35.0783 33.9743 35.0783 34.4951 34.5575C35.016 34.0314 35.016 33.1877 34.4951 32.6668L31.8337 30.0054Z" fill="#EE8454"/>
<mask id="mask3_4912_8912" style="mask-type:luminance" maskUnits="userSpaceOnUse" x="34" y="19" width="7" height="3">
<path d="M34.1982 19.0625H40.3128V21.8073H34.1982V19.0625Z" fill="white"/>
</mask>
<g mask="url(#mask3_4912_8912)">
<path d="M39.0208 19.0679H34.2812C34.3594 19.6929 34.4063 20.3231 34.4063 20.9689C34.4063 21.2293 34.401 21.4845 34.3906 21.7397H39.0208C39.7604 21.7397 40.3594 21.1408 40.3594 20.4012C40.3594 19.6668 39.7604 19.0679 39.0208 19.0679Z" fill="#EE8454"/>
</g>
</svg>
