<svg width="39" height="47" viewBox="0 0 39 47" fill="none" xmlns="http://www.w3.org/2000/svg">
<mask id="mask0_4996_10422" style="mask-type:luminance" maskUnits="userSpaceOnUse" x="0" y="0" width="39" height="47">
<path d="M0.462891 0.515625H38.416V46.4583H0.462891V0.515625Z" fill="white"/>
</mask>
<g mask="url(#mask0_4996_10422)">
<path d="M18.4845 0.53125H20.4428C20.5053 0.562499 20.5678 0.588541 20.6355 0.604167C22.8907 0.765625 24.9532 1.48438 26.823 2.76042C27.7449 3.35938 28.5782 4.06771 29.323 4.88021C30.0678 5.6875 30.698 6.57813 31.2189 7.55208C31.7345 8.52083 32.1251 9.54167 32.3855 10.6094C32.6459 11.6823 32.7657 12.7656 32.7553 13.8646C32.7761 14.1146 32.7397 14.3594 32.6564 14.5938C32.573 14.8281 32.4428 15.0365 32.2709 15.2188C32.0939 15.401 31.8907 15.5365 31.6564 15.625C31.4272 15.7187 31.1824 15.7604 30.9324 15.75C30.2553 15.7708 29.5678 15.7708 28.8855 15.75C28.5314 15.7604 28.2084 15.6771 27.9116 15.4844C27.6147 15.2917 27.3959 15.0313 27.2657 14.7083C27.1303 14.3437 27.0626 13.9635 27.0626 13.5781C27.0366 12.9792 26.9428 12.3854 26.7814 11.8073C26.6147 11.2292 26.3855 10.6771 26.0939 10.1563C25.797 9.63021 25.448 9.14583 25.0418 8.70313C24.6355 8.26042 24.1772 7.875 23.6824 7.54167C23.1824 7.20313 22.6511 6.93229 22.0886 6.72396C21.5209 6.51563 20.9428 6.36979 20.3439 6.29688C19.7501 6.22396 19.1511 6.22396 18.5522 6.29167C17.9584 6.35937 17.3751 6.49479 16.8126 6.70313C16.1095 6.98958 15.4636 7.375 14.8751 7.84896C14.2814 8.32292 13.7709 8.86979 13.3334 9.48958C12.9011 10.1094 12.5626 10.776 12.3178 11.4948C12.073 12.2135 11.9324 12.9479 11.8959 13.7083C11.8543 15.5625 11.8803 17.4167 11.8803 19.276C11.8855 19.3698 11.9011 19.4635 11.9272 19.5573H12.5626C19.823 19.5573 27.0782 19.5573 34.3386 19.5573C34.7084 19.5469 35.0782 19.5729 35.4428 19.6406C35.8751 19.7292 36.2814 19.8906 36.6564 20.125C37.0314 20.3542 37.3595 20.6458 37.6355 20.9896C37.9116 21.3385 38.1199 21.7188 38.2605 22.1354C38.4011 22.5573 38.4689 22.9844 38.4584 23.4271C38.4636 27.8229 38.4636 32.2187 38.4584 36.6146C38.4636 36.974 38.448 37.3281 38.4168 37.6823C38.3595 38.2656 38.2501 38.8333 38.0886 39.3906C37.9272 39.9531 37.7136 40.4896 37.4532 41.0104C37.1876 41.5313 36.8803 42.0208 36.5261 42.4844C36.172 42.9427 35.7761 43.3698 35.3439 43.7604C34.9116 44.1458 34.4428 44.4948 33.948 44.7969C33.448 45.099 32.9272 45.349 32.3855 45.5573C31.8386 45.7604 31.2814 45.9167 30.7084 46.0156C30.1355 46.1146 29.5574 46.1667 28.9741 46.1563C22.6355 46.1563 16.297 46.1667 9.95844 46.1458C9.16677 46.1458 8.39073 46.0521 7.62511 45.8646C6.64073 45.6354 5.72406 45.2604 4.8699 44.7292C4.01052 44.1979 3.26052 43.5469 2.6199 42.7708C1.97927 41.9948 1.47406 41.1354 1.11469 40.1927C0.755314 39.2552 0.55219 38.2813 0.510523 37.276C0.437607 32.599 0.468855 27.9167 0.48969 23.2396C0.48969 22.8281 0.562606 22.4271 0.698023 22.0365C0.838647 21.651 1.03657 21.2917 1.29698 20.974C1.55219 20.651 1.85948 20.3802 2.20844 20.1615C2.5574 19.9427 2.9324 19.7865 3.33865 19.6979C4.08344 19.5885 4.83865 19.5417 5.59386 19.5521C5.77615 19.5417 5.96365 19.5313 6.17719 19.5156V18.9792C6.17719 17.2865 6.17198 15.5938 6.17719 13.901C6.17719 13.1615 6.2449 12.4271 6.3699 11.6927C6.4949 10.9635 6.67719 10.25 6.92198 9.55208C7.16677 8.84896 7.46365 8.17708 7.81781 7.52604C8.17719 6.875 8.58344 6.26042 9.04177 5.67708C9.50011 5.09375 10.0001 4.55208 10.547 4.05208C11.0991 3.55208 11.6824 3.10417 12.3022 2.70313C12.9272 2.29687 13.5782 1.95312 14.2605 1.65625C14.9376 1.36458 15.6407 1.125 16.3595 0.947917C17.0574 0.776041 17.7761 0.666666 18.4845 0.53125ZM19.4689 27.1615C19.0626 27.1667 18.6668 27.2344 18.2814 27.3646C17.8959 27.4896 17.5366 27.6771 17.2136 27.9219C16.8855 28.1615 16.6043 28.4479 16.3699 28.7813C16.1355 29.1146 15.9532 29.474 15.8334 29.8594C15.7189 30.2448 15.6668 30.6354 15.6772 31.0365C15.6876 31.4323 15.7605 31.8229 15.8959 32.1979C16.0261 32.5781 16.2136 32.9219 16.4584 33.2396C16.7032 33.5573 16.9897 33.8281 17.3178 34.0521C17.4636 34.1719 17.547 34.3229 17.5678 34.5052C17.5939 35.1875 17.5678 35.8698 17.5782 36.5521C17.5834 36.8073 17.6303 37.0521 17.7241 37.2865C17.8178 37.526 17.9532 37.7344 18.1251 37.9219C18.297 38.1042 18.5001 38.2552 18.7293 38.3646C18.9584 38.474 19.198 38.5417 19.4532 38.5625C19.7084 38.5469 19.9532 38.4844 20.1876 38.375C20.422 38.2656 20.6251 38.1198 20.8022 37.9323C20.9793 37.7448 21.1147 37.5313 21.2136 37.2917C21.3074 37.0521 21.3543 36.8073 21.3595 36.5469C21.3699 35.8698 21.3491 35.1823 21.3699 34.5C21.3855 34.3281 21.4584 34.1875 21.5886 34.0781C21.9272 33.8542 22.2241 33.5781 22.4741 33.2552C22.7241 32.9375 22.9168 32.5833 23.0522 32.1979C23.1876 31.8177 23.2605 31.4219 23.2657 31.0156C23.2761 30.6042 23.2189 30.2083 23.0939 29.8177C22.9689 29.4375 22.7866 29.0833 22.5522 28.7552C22.3126 28.4323 22.0314 28.1458 21.7084 27.9115C21.3803 27.6719 21.0314 27.4896 20.6459 27.3594C20.2657 27.2344 19.8699 27.1667 19.4689 27.1615Z" fill="#E7862A"/>
</g>
</svg>
