<svg width="64" height="46" viewBox="0 0 64 46" fill="none" xmlns="http://www.w3.org/2000/svg">
<mask id="mask0_4902_8860" style="mask-type:luminance" maskUnits="userSpaceOnUse" x="29" y="20" width="35" height="14">
<path d="M29.334 20.6666H63.0371V34H29.334V20.6666Z" fill="white"/>
</mask>
<g mask="url(#mask0_4902_8860)">
<path d="M52.9336 21.8646L29.543 32.5365C32.3971 32.9583 35.6523 33.2448 39.1107 33.2448C44.9857 33.2448 50.9909 32.6406 55.5794 31.5885C61.0221 30.3385 62.4753 28.9427 62.4753 28.3125C62.4753 28.0833 62.5794 27.875 62.7409 27.7292V27.6198C62.7409 24.5833 58.4596 22.724 53.2148 21.6406C53.1419 21.7344 53.0482 21.8125 52.9336 21.8646Z" fill="#EE8454"/>
</g>
<path d="M27.7188 31.6354L50.6302 21.1823C46.5781 20.5573 42.2917 20.3229 39.1094 20.3229C38.1719 20.3229 37.1042 20.3385 36.2396 20.3593L27.7188 31.6354Z" fill="#EE8454"/>
<mask id="mask1_4902_8860" style="mask-type:luminance" maskUnits="userSpaceOnUse" x="18" y="30" width="46" height="16">
<path d="M18.666 30H63.0358V45.4792H18.666V30Z" fill="white"/>
</mask>
<g mask="url(#mask1_4902_8860)">
<path d="M55.9323 33.125C51.2292 34.2031 45.099 34.8229 39.1094 34.8229C34.2396 34.8229 29.8125 34.2917 26.2552 33.5729L19.6927 42.2448C19.6458 42.3125 19.5937 42.3698 19.5469 42.4323C19.7344 42.6979 19.9948 42.9063 20.3073 43.0208C24.0833 44.3854 31.0104 45.8438 39.1094 45.8438C45.1302 45.8438 50.8073 45.2344 55.099 44.1198C60.1719 42.8073 62.7396 40.9323 62.7396 38.5469V30.5C61.4323 31.5052 59.1667 32.3854 55.9323 33.125Z" fill="#EE8454"/>
</g>
<mask id="mask2_4902_8860" style="mask-type:luminance" maskUnits="userSpaceOnUse" x="12" y="0" width="28" height="29">
<path d="M12 0.5H40V28.6667H12V0.5Z" fill="white"/>
</mask>
<g mask="url(#mask2_4902_8860)">
<path d="M28.1042 28.4427C28.1302 28.4583 28.151 28.4843 28.1719 28.5052L37.1146 16.677C40.4635 12.2395 39.5833 5.901 35.151 2.55204C33.3854 1.2135 31.2813 0.510376 29.0729 0.510376C25.8802 0.510376 22.9479 1.96871 21.0208 4.51038L12.3281 16.0104C12.3646 16.0312 12.401 16.052 12.4323 16.0781L28.1042 28.4427Z" fill="#EE8454"/>
</g>
<mask id="mask3_4902_8860" style="mask-type:luminance" maskUnits="userSpaceOnUse" x="0" y="16" width="28" height="30">
<path d="M0.0683594 16.6666H28.0007V45.4791H0.0683594V16.6666Z" fill="white"/>
</mask>
<g mask="url(#mask3_4902_8860)">
<path d="M27.235 29.7396C27.2038 29.7187 27.1621 29.7083 27.1309 29.6823L11.4538 17.3177C11.4329 17.2969 11.4121 17.276 11.3913 17.2552L2.44856 29.0833C0.823564 31.2291 0.136064 33.8802 0.505856 36.5521C0.875648 39.2187 2.26627 41.5833 4.41211 43.2083C6.17773 44.5416 8.2819 45.25 10.4902 45.25C13.6829 45.25 16.6152 43.7864 18.5371 41.2448L27.235 29.7396Z" fill="#EE8454"/>
</g>
</svg>
