<svg width="46" height="46" viewBox="0 0 46 46" fill="none" xmlns="http://www.w3.org/2000/svg">
<mask id="mask0_4912_8913" style="mask-type:luminance" maskUnits="userSpaceOnUse" x="3" y="0" width="43" height="44">
<path d="M3 0.317871H45.6667V43.3335H3V0.317871Z" fill="white"/>
</mask>
<g mask="url(#mask0_4912_8913)">
<path d="M40.7344 5.07845C37.6875 2.03158 33.6406 0.354492 29.3333 0.354492C25.026 0.354492 20.9792 2.03158 17.9323 5.07845C14.8854 8.12012 13.2083 12.1722 13.2083 16.4795C13.2083 20.2243 14.4792 23.7712 16.8125 26.6357L13.6979 29.7503L12.9896 29.042L3.54688 38.4795L7.32813 42.2607L16.7656 32.818L16.0573 32.1097L19.1719 29.0003C22.0365 31.3337 25.5833 32.6045 29.3281 32.6045C33.6354 32.6045 37.6875 30.9274 40.7344 27.8805C47.0208 21.5941 47.0208 11.3649 40.7344 5.07845ZM38.9896 26.1357C36.4115 28.7139 32.9792 30.1357 29.3281 30.1357C25.6823 30.1357 22.25 28.7139 19.6719 26.1357C17.0938 23.5576 15.6719 20.1253 15.6719 16.4795C15.6719 12.8285 17.0938 9.39616 19.6719 6.81803C22.25 4.23991 25.6771 2.81803 29.3281 2.81803C32.9792 2.81803 36.4063 4.23991 38.9896 6.81803C44.3177 12.1462 44.3177 20.8128 38.9896 26.1357Z" fill="#EE8454"/>
</g>
<path d="M29.3278 4.65625C26.1715 4.65625 23.2028 5.88542 20.9736 8.11979C20.6351 8.45313 20.6351 9 20.9736 9.33854C21.307 9.67708 21.8538 9.67708 22.1924 9.33854C24.0986 7.43229 26.6351 6.38542 29.3278 6.38542C32.0309 6.38542 34.5622 7.43229 36.4736 9.33854C36.6403 9.51042 36.8591 9.58854 37.083 9.58854C37.3018 9.58854 37.5205 9.51042 37.6924 9.33854C38.0309 9 38.0309 8.45313 37.6924 8.11979C35.458 5.88542 32.4893 4.65625 29.3278 4.65625Z" fill="#EE8454"/>
<mask id="mask1_4912_8913" style="mask-type:luminance" maskUnits="userSpaceOnUse" x="0" y="39" width="7" height="7">
<path d="M0.333008 39.3335H6.99967V45.297H0.333008V39.3335Z" fill="white"/>
</mask>
<g mask="url(#mask1_4912_8913)">
<path d="M1.33301 40.6982C0.369466 41.6566 0.369466 43.2191 1.33301 44.1826L1.62467 44.4743C2.58822 45.4378 4.15071 45.4378 5.11426 44.4743L6.41113 43.1774L2.62988 39.4014L1.33301 40.6982Z" fill="#EE8454"/>
</g>
</svg>
