
            <svg id="sw-js-blob-svg" viewBox="0 0 100 100" xmlns="http://www.w3.org/2000/svg">
            <defs>
                <linearGradient id="sw-gradient" x1="0" x2="1" y1="1" y2="0">
                    <stop id="stop1" stop-color="rgba(166, 174, 221, 1)" offset="0%"></stop>
                    <stop id="stop2" stop-color="rgba(0, 34, 232, 1)" offset="100%"></stop>
                </linearGradient>
            </defs>
            <path fill="url(#sw-gradient)" d="M19,-22.5C25.9,-16.9,33.6,-12.1,36.5,-5.1C39.3,1.9,37.2,11.1,32,17.1C26.9,23.2,18.8,26.2,10.8,28.7C2.8,31.3,-5.1,33.3,-11.2,31C-17.4,28.7,-21.8,21.9,-23.3,15.4C-24.8,8.8,-23.3,2.5,-21.8,-3.5C-20.4,-9.5,-18.9,-15.2,-15.3,-21.4C-11.7,-27.5,-5.8,-34.2,0.1,-34.3C6.1,-34.4,12.1,-28,19,-22.5Z" width="100%" height="100%" transform="translate(50 50)" stroke-width="0" style="transition: 0.3s;"></path>
        </svg>